<?xml version="1.0" standalone="no"?><!DOCTYPE svg PUBLIC "-//W3C//DTD SVG 1.1//EN" "http://www.w3.org/Graphics/SVG/1.1/DTD/svg11.dtd"><svg t="1580722192398" class="icon" viewBox="0 0 1024 1024" version="1.1" xmlns="http://www.w3.org/2000/svg" p-id="2875" xmlns:xlink="http://www.w3.org/1999/xlink" width="48" height="48"><defs><style type="text/css"></style></defs><path d="M341.445937 457.049896l-114.51925-42.325112c-16.152491-6.017155-34.128777 2.203589-40.144955 18.361938-6.012273 16.152491 2.206518 34.128777 18.360962 40.145932l114.523155 42.942156c16.153468 6.018131 34.127801-2.202612 40.14105-18.360962 6.016178-16.152491-2.203589-34.128777-18.360962-40.143979v-0.619973z m0 0" p-id="2876"></path><path d="M1004.921432 200.622261h-3.737412a29.802635 29.802635 0 0 0-4.978334-5.602212h-4.35836L522.564924 13.903991a31.088469 31.088469 0 0 0-21.783993 0L34.607181 190.042692h-4.357384a29.789943 29.789943 0 0 0-7.466036 10.579569h-3.733506a30.508526 30.508526 0 0 0-4.98224 18.671437v580.692999a31.129475 31.129475 0 0 0 19.915288 29.254912l466.799581 180.496085a31.135333 31.135333 0 0 0 22.40299 0l466.798604-178.631285a31.113854 31.113854 0 0 0 19.915287-29.251006V219.292721a30.497786 30.497786 0 0 0-4.978333-18.67046zM511.986331 76.144391l377.792949 143.14833-377.792949 140.660628-377.792948-140.660628L511.986331 76.144391zM76.306463 262.860708l404.560157 151.864076v518.454553L76.306463 778.205633V262.860708zM947.660342 777.581755l-404.554299 155.598558V414.72576l404.554299-151.864075v514.72007z m0 0" p-id="2877"></path></svg>