<?xml version="1.0" standalone="no"?><!DOCTYPE svg PUBLIC "-//W3C//DTD SVG 1.1//EN" "http://www.w3.org/Graphics/SVG/1.1/DTD/svg11.dtd"><svg t="1577073068921" class="icon" viewBox="0 0 1024 1024" version="1.1" xmlns="http://www.w3.org/2000/svg" p-id="2584" xmlns:xlink="http://www.w3.org/1999/xlink" width="48" height="48"><defs><style type="text/css"></style></defs><path d="M969.142857 548.571429q0 14.848-10.825143 25.746286t-25.746286 10.825143l-128 0q0 97.718857-38.253714 165.741714l118.857143 119.442286q10.825143 10.825143 10.825143 25.746286t-10.825143 25.746286q-10.313143 10.825143-25.746286 10.825143t-25.746286-10.825143l-113.152-112.566857q-2.852571 2.852571-8.557714 7.460571t-23.990857 16.310857-37.156571 20.845714-46.884571 16.603429-55.442286 7.460571l0-512-73.142857 0 0 512q-29.110857 0-58.002286-7.68t-49.737143-18.870857-37.741714-22.308571-24.868571-18.578286l-8.557714-7.972571-104.594286 118.272q-11.410286 11.995429-27.428571 11.995429-13.677714 0-24.576-9.142857-10.825143-10.313143-11.702857-25.453714t8.850286-26.550857l115.419429-129.682286q-33.133714-65.170286-33.133714-156.598857l-128 0q-14.848 0-25.746286-10.825143t-10.825143-25.746286 10.825143-25.746286 25.746286-10.825143l128 0 0-168.009143-98.889143-98.889143q-10.825143-10.825143-10.825143-25.746286t10.825143-25.746286 25.746286-10.825143 25.746286 10.825143l98.889143 98.889143 482.304 0 98.889143-98.889143q10.825143-10.825143 25.746286-10.825143t25.746286 10.825143 10.825143 25.746286-10.825143 25.746286l-98.889143 98.889143 0 168.009143 128 0q14.848 0 25.746286 10.825143t10.825143 25.746286zM694.857143 219.428571l-365.714286 0q0-75.995429 53.394286-129.462857t129.462857-53.394286 129.462857 53.394286 53.394286 129.462857z" p-id="2585"></path></svg>