<?xml version="1.0" standalone="no"?><!DOCTYPE svg PUBLIC "-//W3C//DTD SVG 1.1//EN" "http://www.w3.org/Graphics/SVG/1.1/DTD/svg11.dtd"><svg t="1564736312666" class="icon" viewBox="0 0 1024 1024" version="1.1" xmlns="http://www.w3.org/2000/svg" p-id="2136" xmlns:xlink="http://www.w3.org/1999/xlink" width="48" height="48"><defs><style type="text/css"></style></defs><path d="M128 128h768a42.666667 42.666667 0 0 1 42.666667 42.666667v682.666666a42.666667 42.666667 0 0 1-42.666667 42.666667H128a42.666667 42.666667 0 0 1-42.666667-42.666667V170.666667a42.666667 42.666667 0 0 1 42.666667-42.666667z m170.666667 533.333333v-170.666666l85.333333 85.333333 85.333333-85.333333v170.666666h85.333334v-298.666666h-85.333334l-85.333333 85.333333-85.333333-85.333333H213.333333v298.666666h85.333334z m469.333333-128v-170.666666h-85.333333v170.666666h-85.333334l128 128 128-128h-85.333333z" p-id="2137"></path></svg>