<?xml version="1.0" standalone="no"?><!DOCTYPE svg PUBLIC "-//W3C//DTD SVG 1.1//EN" "http://www.w3.org/Graphics/SVG/1.1/DTD/svg11.dtd"><svg t="1582950891840" class="icon" viewBox="0 0 1024 1024" version="1.1" xmlns="http://www.w3.org/2000/svg" p-id="1826" xmlns:xlink="http://www.w3.org/1999/xlink" width="48" height="48"><defs><style type="text/css"></style></defs><path d="M327.59296 687.74912l511.36 1.28512c23.89504-1.47456 43.82208-17.0752 49.68448-39.38304l99.29216-416.4864c3.8912-14.69952 0.71168-30.13632-8.72448-42.37312-10.25536-13.30688-26.84928-21.248-44.42112-21.248l-203.86304 0c-13.79328 0-24.98048 11.17696-24.98048 24.95488 0 13.78304 11.1872 24.96512 24.98048 24.96512l203.86816 0c3.24608 0 4.73088 1.53088 4.69504 1.53088l-99.2512 416.37376c-0.23552 0.44544-1.69472 1.68448-2.75968 1.80736l-489.42592-1.27488L245.39648 219.45344l213.34016 0c13.79328 0 24.97536-11.17696 24.97536-24.96 0-13.77792-11.18208-24.96-24.97536-24.96l-225.5872 0-27.776-113.22368L59.10528 56.30976c-13.79328 0-24.97536 11.17184-24.97536 24.96 0 13.78304 11.18208 24.96 24.97536 24.96l107.06944 0 131.584 536.35584c-40.72448 12.99968-70.30784 51.16928-70.30784 96.11264 0 30.23872 13.40416 57.39008 34.56 75.89888-21.15584 18.5088-34.56 45.66016-34.56 75.89376 0 55.64928 45.29664 100.90496 100.97152 100.90496 55.68 0 100.97664-45.25568 100.97152-100.90496 0-18.5856-5.07904-36.00384-13.88544-50.9696l360.82688 0c-8.81152 14.96576-13.89056 32.384-13.89056 50.9696 0 55.64928 45.29664 100.90496 100.97152 100.90496 55.68 0 100.97152-45.25568 100.97152-100.90496 0-55.62368-45.29152-100.8896-100.97152-100.8896L328.4224 789.60128c-0.51712 0-1.024 0.03072-1.536 0.04096-27.42272-0.81408-49.47968-23.34208-49.47968-50.944C277.40672 710.86592 299.84256 688.19968 327.59296 687.74912L327.59296 687.74912zM863.4112 839.52128c28.13952 0 51.0208 22.86592 51.0208 50.97472 0 28.11392-22.88128 50.99008-51.0208 50.99008-28.1344 0-51.01056-22.87616-51.01056-50.99008C812.40064 862.3872 835.2768 839.52128 863.4112 839.52128L863.4112 839.52128zM326.97344 839.55712c0.4864 0.01024 0.96256 0.04096 1.44896 0.04096 0.32768 0 0.64512-0.03584 0.96768-0.04608 27.69408 0.51712 50.048 23.15776 50.048 50.944 0 28.11904-22.88128 50.99008-51.0208 50.99008-28.1344 0-51.01568-22.87104-51.01568-50.99008C277.40672 862.8736 299.50976 840.33024 326.97344 839.55712L326.97344 839.55712zM472.99584 120.67328c-9.91744 9.58464-10.19904 25.3696-0.60928 35.29728 9.6 9.92768 25.38496 10.19904 35.32288 0.60416l63.90784-61.68064 0 256.42496c0 13.77792 11.18208 24.96 24.97536 24.96s24.98048-11.18208 24.98048-24.96L621.57312 94.8992l63.90272 61.68064c4.85376 4.67968 11.10528 7.00928 17.3568 7.00928 6.53312 0 13.06624-2.54464 17.96608-7.61344 9.58976-9.92256 9.30816-25.70752-0.60928-35.28704l-106.23488-102.5536c-0.24576-0.2304-0.50688-0.4352-0.75264-0.65536-0.30208-0.27136-0.59904-0.54784-0.91648-0.80384-0.31744-0.25088-0.64-0.48128-0.96256-0.7168-0.32768-0.24064-0.66048-0.49152-1.00352-0.7168-0.32256-0.21504-0.65536-0.40448-0.98304-0.59904-0.37376-0.22016-0.7424-0.44032-1.11616-0.64-0.31744-0.16896-0.63488-0.31232-0.95744-0.4608-0.41984-0.19968-0.82944-0.39936-1.25952-0.57344-0.29696-0.11264-0.58368-0.21504-0.88064-0.32256-0.46592-0.16896-0.93696-0.33792-1.41312-0.4864-0.27136-0.0768-0.53248-0.13312-0.79872-0.2048-0.51712-0.13312-1.02912-0.27136-1.55648-0.36864-0.24576-0.0512-0.49664-0.0768-0.74752-0.11776-0.5376-0.08704-1.08544-0.18432-1.6384-0.2304-0.21504-0.02048-0.42496-0.01536-0.64-0.03072-0.57344-0.03584-1.14688-0.08704-1.73056-0.08704-0.59392 0-1.17248 0.0512-1.75616 0.08704-0.20992 0.01536-0.4096 0.01024-0.61952 0.03072-0.55808 0.05632-1.11104 0.14848-1.664 0.24064-0.23552 0.03584-0.48128 0.06144-0.7168 0.10752-0.53248 0.10752-1.05472 0.24064-1.58208 0.37888-0.25088 0.06656-0.51712 0.11776-0.768 0.19456-0.49152 0.14336-0.96256 0.32256-1.4336 0.49664-0.28672 0.1024-0.57344 0.19968-0.86016 0.31232-0.4352 0.17408-0.85504 0.37888-1.28 0.57856-0.31744 0.14848-0.62464 0.29184-0.93184 0.45056-0.384 0.2048-0.75776 0.42496-1.14176 0.65024-0.32256 0.18944-0.64 0.37888-0.96256 0.58368-0.35328 0.2304-0.68608 0.48128-1.024 0.73216-0.32256 0.2304-0.64 0.45568-0.9472 0.71168-0.32256 0.256-0.62464 0.53248-0.93696 0.80896-0.24064 0.22016-0.50688 0.41984-0.7424 0.64512L472.99584 120.67328 472.99584 120.67328zM596.59264 358.2464 596.59264 358.2464z" p-id="1827"></path></svg>