<?xml version="1.0" standalone="no"?><!DOCTYPE svg PUBLIC "-//W3C//DTD SVG 1.1//EN" "http://www.w3.org/Graphics/SVG/1.1/DTD/svg11.dtd"><svg t="1577074598863" class="icon" viewBox="0 0 1024 1024" version="1.1" xmlns="http://www.w3.org/2000/svg" p-id="3383" xmlns:xlink="http://www.w3.org/1999/xlink" width="48" height="48"><defs><style type="text/css"></style></defs><path d="M614.4 712.145455l-88.436364-46.545455c-6.981818-4.654545-18.618182-4.654545-25.6 0l-90.763636 44.218182c-11.636364 6.981818-16.290909 20.945455-11.636364 32.581818 6.981818 11.636364 20.945455 16.290909 34.909091 9.309091l81.454546-39.563636 79.127272 41.890909c11.636364 6.981818 27.927273 2.327273 32.581819-9.309091 6.981818-11.636364 0-25.6-11.636364-32.581818zM439.854545 467.781818c0-6.981818-2.327273-11.636364-6.981818-16.290909l-2.327272-2.327273-109.381819-88.436363c-9.309091-6.981818-25.6-6.981818-32.581818 2.327272-9.309091 9.309091-6.981818 23.272727 2.327273 32.581819l88.436364 72.145454-88.436364 72.145455c-9.309091 6.981818-11.636364 23.272727-2.327273 32.581818 9.309091 9.309091 23.272727 9.309091 32.581818 2.327273l109.381819-88.436364c4.654545-4.654545 9.309091-11.636364 9.30909-18.618182z" p-id="3384"></path><path d="M512 69.818182C267.636364 69.818182 69.818182 267.636364 69.818182 512s197.818182 442.181818 442.181818 442.181818 442.181818-197.818182 442.181818-442.181818S756.363636 69.818182 512 69.818182z m0 837.818182c-218.763636 0-395.636364-176.872727-395.636364-395.636364S293.236364 116.363636 512 116.363636s395.636364 176.872727 395.636364 395.636364-176.872727 395.636364-395.636364 395.636364z" p-id="3385"></path><path d="M735.418182 363.054545c-9.309091-9.309091-23.272727-9.309091-32.581818-2.327272l-107.054546 88.436363c-4.654545 4.654545-6.981818 9.309091-6.981818 16.290909s2.327273 13.963636 6.981818 16.29091l107.054546 88.436363c9.309091 6.981818 25.6 6.981818 32.581818-2.327273 9.309091-9.309091 6.981818-23.272727-2.327273-32.581818l-88.436364-69.818182 88.436364-72.145454c9.309091-6.981818 11.636364-20.945455 2.327273-30.254546z" p-id="3386"></path></svg>