<?xml version="1.0" standalone="no"?><!DOCTYPE svg PUBLIC "-//W3C//DTD SVG 1.1//EN" "http://www.w3.org/Graphics/SVG/1.1/DTD/svg11.dtd"><svg t="1564133627954" class="icon" viewBox="0 0 1024 1024" version="1.1" xmlns="http://www.w3.org/2000/svg" p-id="5061" xmlns:xlink="http://www.w3.org/1999/xlink" width="200" height="200"><defs><style type="text/css"></style></defs><path d="M978.050993 869.37434c-38.489616-58.232263-97.716532-75.447343-129.225153-76.713172-137.070842-21.335934-182.00831-68.667939-182.073802-68.667939l-4.057409-4.318352 0 0.064468c-14.559601-13.82589-19.545148-38.35454-20.939915-59.69252 89.011266-68.071352 158.14174-197.296505 158.14174-341.879438 0-231.566006-155.812695-316.02356-278.230816-316.02356-122.411981 0-279.856849 84.458577-279.856849 316.02356 0 144.582933 70.828139 273.808086 159.904896 341.943906-1.330298 21.206998-6.315846 45.735647-21.005406 59.628052l-3.187599 3.38919c-0.466628 0.466628-45.203528 48.130184-182.873004 69.532633-19.378349 0.668219-100.247168 8.244778-135.143956 86.416162-19.142989 43.00956-11.365862 74.453712-1.430582 93.198635 23.536043 44.540426 75.381851 50.189076 88.214111 50.987255l745.279021 0c18.148335 0 78.840626-3.790326 101.641935-53.115732C1002.846726 949.277158 1008.098333 914.843928 978.050993 869.37434z" p-id="5062"></path></svg>