<?xml version="1.0" standalone="no"?><!DOCTYPE svg PUBLIC "-//W3C//DTD SVG 1.1//EN" "http://www.w3.org/Graphics/SVG/1.1/DTD/svg11.dtd"><svg t="1583735070785" class="icon" viewBox="0 0 1024 1024" version="1.1" xmlns="http://www.w3.org/2000/svg" p-id="2999" xmlns:xlink="http://www.w3.org/1999/xlink" width="48" height="48"><defs><style type="text/css"></style></defs><path d="M601.746773 471.115093l-19.616427-15.373653c-3.177813-2.491733-7.768747-1.938773-10.263893 1.23904l-57.808213 72.185173-57.808213-72.185173c-2.48832-3.181227-7.08608-3.734187-10.263893-1.23904l-19.613013 15.373653c-3.177813 2.48832-3.7376 7.08608-1.245867 10.26048l55.77728 69.655893-48.20992 0c-4.058453 0-7.345493 3.293867-7.345493 7.35232l0 25.053867c0 4.058453 3.28704 7.35232 7.345493 7.35232l58.978987 0 0 20.739413-58.978987 0c-4.058453 0-7.345493 3.28704-7.345493 7.345493l0 25.053867c0 4.058453 3.28704 7.35232 7.345493 7.35232l58.978987 0 0 37.98016c0 4.676267 3.7888 8.46848 8.465067 8.46848l28.869973 0c4.672853 0 8.465067-3.792213 8.465067-8.46848l0-37.98016 52.927147 0c4.05504 0 7.345493-3.293867 7.345493-7.35232l0-25.053867c0-4.058453-3.290453-7.345493-7.345493-7.345493l-52.927147 0 0-20.739413 52.927147 0c4.05504 0 7.345493-3.293867 7.345493-7.35232l0-25.053867c0-4.058453-3.290453-7.35232-7.345493-7.35232l-43.195733 0 55.780693-69.655893C605.477547 478.204587 604.91776 473.606827 601.746773 471.115093z" p-id="3000"></path><path d="M510.90432 10.24C234.0864 10.24 9.6768 234.6496 9.6768 511.46752c0 276.81792 224.4096 501.22752 501.22752 501.22752s501.22752-224.4096 501.22752-501.22752C1012.128427 234.6496 787.718827 10.24 510.90432 10.24zM250.781013 301.30176c0-20.292267 16.448853-36.747947 36.747947-36.747947l105.847467 0 0 66.112853L250.781013 330.666667 250.781013 301.30176zM271.52384 783.076693l-105.847467 0c-20.29568 0-36.747947-16.452267-36.747947-36.747947l0-138.253653c27.204267 0 49.257813-22.05696 49.257813-49.261227 0-27.200853-22.053547-49.257813-49.257813-49.257813l0-103.256747c0-20.292267 16.448853-36.747947 36.747947-36.747947l105.847467 0L271.52384 783.076693zM771.027627 474.555733c0 29.385387-32.406187 19.012267-32.406187 50.988373 0 31.542613 32.406187 19.012267 32.406187 50.558293s-32.406187 16.41472-32.406187 47.100587c0 31.105707 32.406187 19.869013 32.406187 47.09376 0 31.976107-32.406187 19.00544-32.406187 48.827733 0 28.945067 26.791253 18.909867 26.791253 45.806933 0 8.680107-4.543147 15.445333-6.683307 18.148693L323.372373 783.080107 323.372373 369.558187l438.708907 0c2.013867 1.600853 8.942933 7.553707 8.942933 13.827413 0 22.03648-32.406187 23.76704-32.406187 47.100587S771.027627 445.177173 771.027627 474.555733zM892.880213 471.10144c0 31.5392-32.406187 16.418133-32.406187 47.097173 0 31.102293 32.406187 19.87584 32.406187 47.100587 0 31.972693-32.406187 19.00544-32.406187 48.82432 0 28.941653 26.78784 18.906453 26.78784 45.800107 0 8.68352-4.539733 15.445333-6.679893 18.158933l-79.663787 0c1.553067-27.026773 32.334507-15.510187 32.334507-46.677333 0-27.224747-32.406187-15.988053-32.406187-47.09376 0-30.68928 32.406187-15.557973 32.406187-47.100587 0-31.546027-32.406187-19.012267-32.406187-50.558293 0-31.976107 32.406187-21.6064 32.406187-50.988373 0-29.381973-32.406187-20.736-32.406187-44.07296s32.406187-25.060693 32.406187-47.100587c0-6.27712-6.925653-12.223147-8.946347-13.824L445.22496 330.666667 445.22496 264.557227l438.708907 0c2.01728 1.600853 8.946347 7.550293 8.946347 13.827413 0 22.039893-32.406187 23.76704-32.406187 47.100587s32.406187 14.690987 32.406187 44.07296-32.406187 19.008853-32.406187 50.988373C860.474027 452.08576 892.880213 439.555413 892.880213 471.10144z" p-id="3001"></path></svg>