<?xml version="1.0" standalone="no"?><!DOCTYPE svg PUBLIC "-//W3C//DTD SVG 1.1//EN" "http://www.w3.org/Graphics/SVG/1.1/DTD/svg11.dtd"><svg t="1583378112236" class="icon" viewBox="0 0 1024 1024" version="1.1" xmlns="http://www.w3.org/2000/svg" p-id="2875" xmlns:xlink="http://www.w3.org/1999/xlink" width="48" height="48"><defs><style type="text/css"></style></defs><path d="M711.540916 1024a237.169954 237.169954 0 1 1 237.169954-237.169954 237.169954 237.169954 0 0 1-237.169954 237.169954z m62.088598-342.997684l-61.714119 176.404515-62.413146-176.404515h-66.357656l104.854085 254.271156h46.085866l103.131482-254.271156h-63.586512z m-359.324963 96.465758a303.527611 303.527611 0 0 0 77.167613 202.218593c-21.2704 0.299583-42.291148 0.424409-62.413146 0.424409-105.802765 0-202.792793-26.662896-308.595558-53.325792-8.812736 0-26.438209-8.887632-35.27591-8.887632 8.812736-88.851354 0-177.702709 8.812737-257.666431a252.348831 252.348831 0 0 1 105.802764-177.727674 288.748178 288.748178 0 0 1 167.541849-53.300826h158.704147a264.981252 264.981252 0 0 1 153.037033 46.160762 304.875734 304.875734 0 0 0-264.781529 302.104591z m32.454836-357.003194c-114.615501 0-202.792793-97.738986-211.60553-213.253236a207.211644 207.211644 0 0 1 414.423288 0 202.44328 202.44328 0 0 1-202.792793 213.178341z" p-id="2876"></path></svg>