<?xml version="1.0" standalone="no"?><!DOCTYPE svg PUBLIC "-//W3C//DTD SVG 1.1//EN" "http://www.w3.org/Graphics/SVG/1.1/DTD/svg11.dtd"><svg t="1580785485019" class="icon" viewBox="0 0 1024 1024" version="1.1" xmlns="http://www.w3.org/2000/svg" p-id="1519" xmlns:xlink="http://www.w3.org/1999/xlink" width="48" height="48"><defs><style type="text/css"></style></defs><path d="M887.776 608.96c-8.832 0-16 7.168-16 16l0 112c0 35.328-28.672 64-64 64l-704 0c-35.328 0-64-28.672-64-64l0-384c0-35.328 28.672-64 64-64l432 0c8.832 0 16-7.168 16-16s-7.168-16-16-16l-432 0c-53.024 0-96 42.976-96 96l0 384c0 53.024 42.976 96 96 96l704 0c53.024 0 96-42.976 96-96l0-112C903.776 616.128 896.64 608.96 887.776 608.96zM135.776 464.96c0 8.832 7.168 16 16 16l416 0c8.832 0 16-7.168 16-16s-7.168-16-16-16l-416 0C142.944 448.96 135.776 456.128 135.776 464.96zM135.776 624.96c0 8.832 7.168 16 16 16l608 0c8.832 0 16-7.168 16-16s-7.168-16-16-16l-608 0C142.944 608.96 135.776 616.128 135.776 624.96zM1006.176 338.56c15.488-11.456 21.696-32.256 15.328-51.712-6.016-18.496-21.6-30.432-39.648-30.432l-84.192 0c-0.032 0-0.064 0-0.064 0-6.88 0-11.072-2.432-12.48-7.264l-24.416-89.888C855.328 140.448 839.616 128.16 820.704 128l-0.384 0c-18.752 0-34.496 11.968-40.192 30.592l-25.76 89.504c-2.304 7.648-9.408 8.352-12.96 8.32l-83.648 0c-18.816-0.064-34.368 11.04-40.544 29.056-6.304 18.368-0.416 38.496 14.72 50.016l68.064 46.976c4.96 3.744 6.976 10.752 4.928 16.992l-27.488 83.872c-6.144 18.752 0.256 38.912 15.968 50.176 15.072 10.816 34.336 10.432 49.056-0.928l67.84-52.384c4.512-3.488 10.56-3.424 15.104 0.128l67.008 53.472c7.648 6.112 16.672 9.216 25.664 9.216 8.096 0 16.192-2.496 23.424-7.488 15.84-11.008 22.56-31.072 16.704-49.92l-26.144-84.32c-1.952-6.272 0.192-13.248 5.184-16.928L1006.176 338.56zM902.016 410.816l26.112 84.32c2.048 6.688-0.96 11.712-4.512 14.176-2.24 1.504-6.688 3.456-11.648-0.448l-67.008-53.504c-15.712-12.576-37.856-12.736-53.824-0.448l-67.84 52.384c-5.024 3.872-9.472 1.856-11.616 0.256-3.52-2.496-6.496-7.552-4.352-14.208l27.488-83.872c6.336-19.328-0.032-40.384-15.808-52.416L651.008 310.08c-5.184-3.904-5.44-9.92-3.968-14.208 0.8-2.336 2.912-8.608 10.432-7.648l83.648 0c21.056 0.608 37.6-11.648 43.424-30.784l25.76-89.472c2.208-7.328 7.712-8.128 10.048-8.128 2.496 0.192 7.936 0.768 10.08 8.32l24.416 89.888c5.376 18.624 21.728 30.176 42.72 30.176l84.192 0c0 0 0 0 0.032 0 6.304 0 8.928 5.984 9.792 8.576 1.568 4.864 1.504 12-4 16.064l-68.864 45.824C902.72 370.432 896.032 391.392 902.016 410.816z" p-id="1520"></path></svg>