<?xml version="1.0" standalone="no"?><!DOCTYPE svg PUBLIC "-//W3C//DTD SVG 1.1//EN" "http://www.w3.org/Graphics/SVG/1.1/DTD/svg11.dtd"><svg t="1581910851403" class="icon" viewBox="0 0 1024 1024" version="1.1" xmlns="http://www.w3.org/2000/svg" p-id="2169" xmlns:xlink="http://www.w3.org/1999/xlink" width="48" height="48"><defs><style type="text/css"></style></defs><path d="M146.285714 0m18.285715 0l36.571428 0q18.285714 0 18.285714 18.285714l0 596.662857q0 18.285714-18.285714 18.285715l-36.571428 0q-18.285714 0-18.285715-18.285715l0-596.662857q0-18.285714 18.285715-18.285714Z" p-id="2170"></path><path d="M146.285714 776.228571m18.285715 0l36.571428 0q18.285714 0 18.285714 18.285715l0 211.2q0 18.285714-18.285714 18.285714l-36.571428 0q-18.285714 0-18.285715-18.285714l0-211.2q0-18.285714 18.285715-18.285715Z" p-id="2171"></path><path d="M804.571429 0m18.285714 0l36.571428 0q18.285714 0 18.285715 18.285714l0 592.274286q0 18.285714-18.285715 18.285714l-36.571428 0q-18.285714 0-18.285714-18.285714l0-592.274286q0-18.285714 18.285714-18.285714Z" p-id="2172"></path><path d="M804.571429 779.154286m18.285714 0l36.571428 0q18.285714 0 18.285715 18.285714l0 208.274286q0 18.285714-18.285715 18.285714l-36.571428 0q-18.285714 0-18.285714-18.285714l0-208.274286q0-18.285714 18.285714-18.285714Z" p-id="2173"></path><path d="M475.428571 390.948571m18.285715 0l36.571428 0q18.285714 0 18.285715 18.285715l0 596.48q0 18.285714-18.285715 18.285714l-36.571428 0q-18.285714 0-18.285715-18.285714l0-596.48q0-18.285714 18.285715-18.285715Z" p-id="2174"></path><path d="M182.857143 658.285714h3.108571a54.857143 54.857143 0 0 1-3.108571 109.714286h-2.925714a54.857143 54.857143 0 0 1 2.925714-109.714286m0-73.142857a128 128 0 0 0-6.582857 256H182.857143a128 128 0 0 0 6.582857-256zM512 251.428571h3.108571a54.857143 54.857143 0 0 1-2.742857 109.714286h-3.108571a54.857143 54.857143 0 0 1 2.742857-109.714286m0-73.142857a128 128 0 0 0-6.582857 256H512a128 128 0 0 0 6.582857-256zM841.142857 658.285714h3.108572a54.857143 54.857143 0 0 1-3.108572 109.714286h-3.108571a54.857143 54.857143 0 0 1 3.108571-109.714286m0-73.142857a128 128 0 0 0-6.582857 256H841.142857a128 128 0 0 0 6.582857-256z" p-id="2175"></path><path d="M475.428571 0m18.285715 0l36.571428 0q18.285714 0 18.285715 18.285714l0 188.525715q0 18.285714-18.285715 18.285714l-36.571428 0q-18.285714 0-18.285715-18.285714l0-188.525715q0-18.285714 18.285715-18.285714Z" p-id="2176"></path></svg>