<?xml version="1.0" standalone="no"?><!DOCTYPE svg PUBLIC "-//W3C//DTD SVG 1.1//EN" "http://www.w3.org/Graphics/SVG/1.1/DTD/svg11.dtd"><svg t="1589357626155" class="icon" viewBox="0 0 1024 1024" version="1.1" xmlns="http://www.w3.org/2000/svg" p-id="1148" xmlns:xlink="http://www.w3.org/1999/xlink" width="48" height="48"><defs><style type="text/css"></style></defs><path d="M832.768 341.205c0-18.901 15.872-34.261 35.413-34.261 19.883 0 36.096 15.659 36.096 34.859v550.144c0 60.97-51.498 110.72-114.602 110.72H157.227c-63.062 0-114.56-49.75-114.56-110.72V203.008c0-60.97 51.498-110.72 114.56-110.72h493.738c20.651 0 37.334 16.128 37.334 36.096 0 21.632-18.091 39.296-40.662 39.296H149.12c-19.37 0-35.115 15.36-35.115 33.92v691.883c0 18.773 15.915 33.962 35.115 33.962h648.533c19.371 0 35.115-15.36 35.115-33.962V341.205zM444.075 442.24H215.552a28.885 28.885 0 0 1-29.227-28.288V400.64c0-15.488 13.184-28.245 29.227-28.245h228.523c16.042 0 29.226 12.757 29.226 28.245v13.355c0.171 15.53-13.013 28.288-29.226 28.288z m214.357 210.048h-442.88a28.885 28.885 0 0 1-29.227-28.245v-13.398c0-15.488 13.184-28.245 29.227-28.245h442.88c16.043 0 29.227 12.757 29.227 28.245v13.398c0 15.488-13.184 28.245-29.227 28.245zM972.757 79.104L606.464 434.987a30.25 30.25 0 0 1-41.472 0.17l-9.813-9.514a27.819 27.819 0 0 1-0.214-40.107L921.43 29.696a30.25 30.25 0 0 1 41.472-0.17l9.814 9.514c11.477 11.093 11.477 29.013 0 40.107z" p-id="1149"></path></svg>