<?xml version="1.0" standalone="no"?><!DOCTYPE svg PUBLIC "-//W3C//DTD SVG 1.1//EN" "http://www.w3.org/Graphics/SVG/1.1/DTD/svg11.dtd"><svg t="1583735086296" class="icon" viewBox="0 0 1187 1024" version="1.1" xmlns="http://www.w3.org/2000/svg" p-id="3143" xmlns:xlink="http://www.w3.org/1999/xlink" width="55.640625" height="48"><defs><style type="text/css"></style></defs><path d="M348.029922 1024c-65.677158 0-127.668784-32.001506-160.091837-89.861962a21.077394 21.077394 0 0 1 36.758975-20.631757c38.071795 67.82103 130.077629 88.753893 205.040884 46.659327l631.924347-354.738556c36.626488-20.559492 63.689861-52.838015 76.203811-90.885721 12.297154-37.337097 9.00908-75.878617-9.262009-108.398024a21.077394 21.077394 0 0 1 36.758975-20.631757c24.08845 42.985839 28.580946 93.499318 12.550082 142.25434-15.814067 48.09259-49.778781 88.741849-95.619102 114.420137L450.369701 996.924582a209.087744 209.087744 0 0 1-102.339779 27.075418zM40.408375 649.316208a21.065349 21.065349 0 0 1-18.403576-10.767537c-24.08845-42.985839-28.580946-93.499318-12.550082-142.25434 15.814067-48.09259 49.778781-88.741849 95.619101-114.420137L737.010209 27.087462c95.257775-53.476359 212.978029-25.292872 262.431616 62.786544a21.077394 21.077394 0 0 1-36.758974 20.595625c-38.071795-67.82103-130.077629-88.753893-205.040884-46.659328L125.717619 418.572948C89.091131 439.132439 62.027758 471.410962 49.513809 509.458669c-12.297154 37.337097-9.00908 75.878617 9.262008 108.398024a21.089438 21.089438 0 0 1-18.355398 31.399294z" p-id="3144"></path><path d="M208.979346 947.458951a21.077394 21.077394 0 0 1-10.333945-39.456881A147.439379 147.439379 0 0 0 54.295366 650.869913a21.077394 21.077394 0 1 1-20.631757-36.758974c91.162738-51.175912 206.955916-18.64446 258.131827 72.518278a189.588144 189.588144 0 0 1-72.566455 258.131827 20.98104 20.98104 0 0 1-10.249635 2.697907zM1065.769372 441.589461A195.032134 195.032134 0 0 1 969.957563 76.480828a21.077394 21.077394 0 1 1 20.631757 36.758974 152.901435 152.901435 0 0 0 149.697671 266.659139 21.077394 21.077394 0 1 1 20.631758 36.758975 193.912021 193.912021 0 0 1-95.149377 24.931545zM565.572712 924.309951a21.065349 21.065349 0 0 1-18.403575-10.767537l-38.878758-69.182028a21.077394 21.077394 0 1 1 36.758974-20.631757l38.842625 69.194072a21.077394 21.077394 0 0 1-18.355398 31.399294zM285.36382 424.101247a21.065349 21.065349 0 0 1-18.403575-10.767537l-39.685721-70.687556a21.077394 21.077394 0 0 1 36.758974-20.631757l39.685721 70.687555a21.077394 21.077394 0 0 1-18.355399 31.399295zM379.597836 591.985697a21.065349 21.065349 0 0 1-18.403576-10.767537l-39.685721-70.687555a21.090642 21.090642 0 0 1 36.771019-20.66789l39.685721 70.687556a21.077394 21.077394 0 0 1-18.355399 31.399294zM473.843896 759.870148a21.065349 21.065349 0 0 1-18.403576-10.767537l-39.685721-70.687556a21.077394 21.077394 0 1 1 36.758974-20.631757l39.685721 70.687556a21.077394 21.077394 0 0 1-18.355398 31.399294zM686.304023 458.54773l-184.336862-71.060927a21.078598 21.078598 0 0 1 15.163679-39.336438l136.81035 52.74166 27.219949-149.721759a21.097869 21.097869 0 0 1 41.516443 7.539685z" p-id="3145"></path><path d="M581.338603 503.484733a21.077394 21.077394 0 0 1-10.333945-39.456881l176.965796-99.328722a21.077394 21.077394 0 1 1 20.631757 36.758974l-176.965796 99.328723a20.98104 20.98104 0 0 1-10.297812 2.697906zM622.01195 580.772524a21.077394 21.077394 0 0 1-10.333945-39.456881l176.953752-99.328722a21.077394 21.077394 0 0 1 20.631757 36.758974l-176.917619 99.328723a20.98104 20.98104 0 0 1-10.333945 2.697906z" p-id="3146"></path><path d="M778.972289 653.110139a21.065349 21.065349 0 0 1-18.403576-10.767537l-118.153846-210.484874a21.077394 21.077394 0 0 1 36.758974-20.631758l118.177935 210.496919a21.077394 21.077394 0 0 1-18.355399 31.399294z" p-id="3147"></path><path d="M778.972289 653.110139a21.065349 21.065349 0 0 1-18.403576-10.767537l-118.153846-210.484874a21.077394 21.077394 0 0 1 36.758974-20.631758l118.177935 210.496919a21.077394 21.077394 0 0 1-18.355399 31.399294z" p-id="3148"></path></svg>