<?xml version="1.0" standalone="no"?><!DOCTYPE svg PUBLIC "-//W3C//DTD SVG 1.1//EN" "http://www.w3.org/Graphics/SVG/1.1/DTD/svg11.dtd"><svg t="1582011881072" class="icon" viewBox="0 0 1024 1024" version="1.1" xmlns="http://www.w3.org/2000/svg" p-id="3732" xmlns:xlink="http://www.w3.org/1999/xlink" width="48" height="48"><defs><style type="text/css"></style></defs><path d="M209.454545 870.4h619.054546v69.818182H209.454545zM1024 418.909091c0-60.509091-46.545455-107.054545-107.054545-107.054546-60.509091 0-107.054545 46.545455-107.054546 107.054546v13.963636l-102.4 60.509091-125.672727-218.763636c23.272727-18.618182 37.236364-46.545455 37.236363-79.127273 0-60.509091-46.545455-107.054545-107.054545-107.054545s-107.054545 46.545455-107.054545 107.054545c0 32.581818 13.963636 65.163636 41.890909 83.781818L325.818182 493.381818 204.8 428.218182c4.654545-9.309091 4.654545-18.618182 4.654545-27.927273 0-60.509091-46.545455-107.054545-107.054545-107.054545C46.545455 293.236364 0 339.781818 0 400.290909c0 55.854545 41.890909 102.4 97.745455 107.054546l93.090909 293.236363c4.654545 13.963636 18.618182 23.272727 32.581818 23.272727h581.818182c13.963636 0 27.927273-9.309091 32.581818-23.272727l79.127273-269.963636C977.454545 521.309091 1024 474.763636 1024 418.909091zM516.654545 153.6c18.618182 0 37.236364 13.963636 37.236364 37.236364s-13.963636 37.236364-37.236364 37.236363c-18.618182 0-37.236364-13.963636-37.236363-37.236363s18.618182-37.236364 37.236363-37.236364zM69.818182 400.290909c0-18.618182 13.963636-37.236364 37.236363-37.236364 18.618182 0 32.581818 13.963636 32.581819 37.236364s-13.963636 32.581818-32.581819 32.581818c-18.618182 0-37.236364-13.963636-37.236363-32.581818z m712.145454 349.090909H251.345455l-83.781819-265.309091 153.6 83.781818c18.618182 9.309091 37.236364 4.654545 46.545455-13.963636l148.945454-260.654545 148.945455 260.654545c4.654545 9.309091 13.963636 13.963636 23.272727 18.618182 9.309091 4.654545 18.618182 0 27.927273-4.654546l130.327273-74.472727 9.309091 9.309091-74.472728 246.690909z m134.981819-297.890909c-18.618182 0-32.581818-13.963636-32.581819-32.581818s13.963636-37.236364 37.236364-37.236364c18.618182 0 37.236364 13.963636 37.236364 37.236364s-23.272727 32.581818-41.890909 32.581818z" p-id="3733"></path></svg>