<?xml version="1.0" standalone="no"?><!DOCTYPE svg PUBLIC "-//W3C//DTD SVG 1.1//EN" "http://www.w3.org/Graphics/SVG/1.1/DTD/svg11.dtd"><svg t="1580722220356" class="icon" viewBox="0 0 1024 1024" version="1.1" xmlns="http://www.w3.org/2000/svg" p-id="3328" xmlns:xlink="http://www.w3.org/1999/xlink" width="48" height="48"><defs><style type="text/css"></style></defs><path d="M457.142857 475.428571h-329.142857a18.285714 18.285714 0 0 1-18.285714-18.285714v-329.142857a18.285714 18.285714 0 0 1 18.285714-18.285714h329.142857a18.285714 18.285714 0 0 1 18.285714 18.285714v329.142857a18.285714 18.285714 0 0 1-18.285714 18.285714zM146.285714 438.857143h292.571429V146.285714H146.285714z" p-id="3329"></path><path d="M896 475.428571h-329.142857a18.285714 18.285714 0 0 1-18.285714-18.285714v-329.142857a18.285714 18.285714 0 0 1 18.285714-18.285714h329.142857a18.285714 18.285714 0 0 1 18.285714 18.285714v329.142857a18.285714 18.285714 0 0 1-18.285714 18.285714zM585.142857 438.857143h292.571429V146.285714h-292.571429z" p-id="3330"></path><path d="M457.142857 914.285714h-329.142857a18.285714 18.285714 0 0 1-18.285714-18.285714v-329.142857a18.285714 18.285714 0 0 1 18.285714-18.285714h329.142857a18.285714 18.285714 0 0 1 18.285714 18.285714v329.142857a18.285714 18.285714 0 0 1-18.285714 18.285714zM146.285714 877.714286h292.571429v-292.571429H146.285714z" p-id="3331"></path><path d="M896 914.285714h-329.142857a18.285714 18.285714 0 0 1-18.285714-18.285714v-329.142857a18.285714 18.285714 0 0 1 18.285714-18.285714h329.142857a18.285714 18.285714 0 0 1 18.285714 18.285714v329.142857a18.285714 18.285714 0 0 1-18.285714 18.285714zM585.142857 877.714286h292.571429v-292.571429h-292.571429z" p-id="3332"></path></svg>