<?xml version="1.0" standalone="no"?><!DOCTYPE svg PUBLIC "-//W3C//DTD SVG 1.1//EN" "http://www.w3.org/Graphics/SVG/1.1/DTD/svg11.dtd"><svg t="1564133717532" class="icon" viewBox="0 0 1024 1024" version="1.1" xmlns="http://www.w3.org/2000/svg" p-id="8344" xmlns:xlink="http://www.w3.org/1999/xlink" width="200" height="200"><defs><style type="text/css"></style></defs><path d="M904.1 698.2l-26.9 8.3c0.8 5.8 1.7 11.4 1.7 17.4 0 5.9-0.9 11.5-1.9 17.3l27 8.4c6.3 1.8 11.6 6.1 14.7 11.8 3.1 5.9 3.7 12.6 1.6 18.8-4.3 12.8-18.5 19.7-31.9 15.7l-27.3-8.5c-5.7 10.2-12.6 19.7-21 28.2l16.6 22c4.1 5.1 5.8 11.8 4.7 18.3-1.1 6.4-4.8 12.1-10.2 15.7-11.4 8-27 5.6-35.5-5.4l-16.6-22c-11 5.2-22.6 9-34.4 11.1v26.9c0 13.4-11.3 24.3-25.3 24.3-14.1 0-25.5-11-25.5-24.3v-26.9c-11.9-2.1-23.4-5.9-34.3-11.1l-16.7 22c-8.6 11-24.1 13.3-35.4 5.4-5.4-3.6-9.1-9.3-10.2-15.7-1.1-6.5 0.6-13.1 4.6-18.3l16.7-22.2c-8.4-8.3-15.7-17.6-21.6-27.8l-26.7 8.3c-13.4 4.1-27.6-2.8-31.9-15.7-2.1-6.2-1.5-13 1.5-18.8 3.1-5.8 8.4-10.1 14.7-11.8l26.8-8.3c-0.6-5.8-1.6-11.4-1.6-17.5 0-5.9 0.9-11.6 1.8-17.3l-27-8.3c-13.3-4.3-20.5-18-16.2-30.7 4.3-12.8 18.5-19.7 31.9-15.7l27.2 8.6c5.9-10.1 12.7-19.8 21.1-28.3l-16.6-22c-4-5.2-5.6-11.7-4.6-18.2 1.1-6.4 4.7-12.1 10.1-15.8 11.4-7.9 27-5.5 35.5 5.4l16.7 22.1c11-5.1 22.6-9 34.5-11.2v-26.9c0-13.4 11.2-24.3 25.3-24.3 14 0 25.4 10.9 25.4 24.3v26.8c12.1 2.1 23.5 6.2 34.3 11.2l16.8-22.1c8.5-10.9 24-13.3 35.4-5.4 5.4 3.6 9.1 9.3 10.2 15.7 1.1 6.4-0.5 13-4.5 18.2L840 632.3c8.3 8.3 15.9 17.5 21.6 27.8l26.7-8.3c13.4-4.1 27.6 2.9 32 15.7 4.4 12.8-3 26.5-16.2 30.7z m-164.9-59.6c-49.1 0-88.9 38.2-88.9 85.2 0 47.1 39.8 85.2 88.9 85.2 49 0 88.9-38.1 88.9-85.2 0-46.9-39.8-85.2-88.9-85.2z m0 0" p-id="8345"></path><path d="M744.6 148.1h-61.2c0-17.7-16.8-30.6-34.3-30.6H133.9c-8.4 0.1-16.5 3.5-22.4 9.5-5.9 6-9.2 14.1-9.1 22.5V786s33.5 96.1 88.6 96.1h367.2c-1.9-5-3.3-10.3-4.2-15.6-0.6-3.4-1-6.9-1.1-10.4-3.5-1.2-7-2.7-10.4-4.4-20.3-10-35.7-26.8-43.7-47.6H196.5s-32.5-11-32.5-33l328.9-0.2c0.2-13.7 3.7-27.3 10.2-39.5 1.4-2.7 2.9-5.2 4.6-7.7-2-3-3.8-6.2-5.5-9.4-10.6-21.1-12.3-45-4.7-67.4 7.6-22.4 23.5-40.6 45-51.1 3.4-1.7 6.9-3.1 10.5-4.4 0.2-3.3 0.5-6.7 1-10 3.9-23.7 17.4-44.9 37.3-58.4 5.6-3.8 11.5-6.9 17.5-9.3H267.3V452h356.4v57.4c15-3.1 30.5-2.3 45 2.1 3.8-4.8 8.1-9.2 12.8-13.2l1.5-302.8h30.6l0.4 285.4c8-2.4 16.5-3.6 25.3-3.6 12.8 0 25 2.7 36.1 7.5V183.6c-0.1-0.1-5.2-35.5-30.8-35.5zM222.2 513.9h-61.9V452h61.9v61.9z m0-115.5h-61.9v-62h61.9v62z m0-109.8h-61.9v-62h61.9v62z m401.5 109.8H267.3v-62h356.4v62z m0-109.8H267.3v-62h356.4v62z" p-id="8346"></path></svg>