<?xml version="1.0" standalone="no"?><!DOCTYPE svg PUBLIC "-//W3C//DTD SVG 1.1//EN" "http://www.w3.org/Graphics/SVG/1.1/DTD/svg11.dtd"><svg t="1564133858323" class="icon" viewBox="0 0 1024 1024" version="1.1" xmlns="http://www.w3.org/2000/svg" p-id="11155" xmlns:xlink="http://www.w3.org/1999/xlink" width="200" height="200"><defs><style type="text/css"></style></defs><path d="M920 147H104c-35.8 0-65 29.2-65 65v600c0 35.8 29.2 65 65 65h382.9c13.8 0 25-11.2 25-25s-11.2-25-25-25H104c-8.3 0-15-6.7-15-15V212c0-8.3 6.7-15 15-15h816c8.3 0 15 6.7 15 15v591c0 13.3-10.8 24-24 24H783.7c-13.8 0-25 11.2-25 25s11.2 25 25 25H911c40.8 0 74-33.2 74-74V212c0-35.8-29.2-65-65-65z" p-id="11156"></path><path d="M463 386.6c0-67.8-55.2-123-123-123s-123 55.2-123 123 55.2 123 123 123 123-55.1 123-123z m-196 0c0-40.3 32.7-73 73-73s73 32.7 73 73-32.7 73-73 73-73-32.7-73-73z m73 152c-108.6 0-196.9 88.3-196.9 196.9 0 13.8 11.2 25 25 25s25-11.2 25-25c0-81 65.9-146.9 146.9-146.9s146.9 65.9 146.9 146.9c0 13.8 11.2 25 25 25s25-11.2 25-25c0-108.5-88.3-196.9-196.9-196.9z m302.9-143.2h130c13.8 0 25-11.2 25-25s-11.2-25-25-25h-130c-13.8 0-25 11.2-25 25 0 13.7 11.3 25 25 25z m-25 159.1c0 13.7 11.2 25 25 25h220c13.8 0 25-11.2 25-25s-11.2-25-25-25h-220c-13.7 0-25 11.3-25 25z m270 110c0-13.8-11.2-25-25-25h-220c-13.8 0-25 11.2-25 25 0 13.7 11.2 25 25 25h220c13.8 0 25-11.2 25-25z" p-id="11157"></path></svg>