<?xml version="1.0" standalone="no"?><!DOCTYPE svg PUBLIC "-//W3C//DTD SVG 1.1//EN" "http://www.w3.org/Graphics/SVG/1.1/DTD/svg11.dtd"><svg t="1581052509011" class="icon" viewBox="0 0 1025 1024" version="1.1" xmlns="http://www.w3.org/2000/svg" p-id="2103" xmlns:xlink="http://www.w3.org/1999/xlink" width="48.046875" height="48"><defs><style type="text/css"></style></defs><path d="M693.515077 347.245655c11.749602 0 23.382547 0.859577 34.914184 2.148943C697.061856 203.307406 540.865421 94.76634 362.587062 94.76634c-199.316511 0-362.588085 135.851061-362.588085 308.365136 0 99.576903 54.321186 181.348278 145.092539 244.769726l-36.266995 109.070114 126.752846-63.556525c45.353954 8.977465 81.748862 18.201547 127.010719 18.201547 11.379165 0 22.661116-0.561795 33.849946-1.434675-7.087419-24.242124-11.189853-49.63649-11.189853-75.972299C385.247154 475.798497 521.281387 347.245655 693.515077 347.245655L693.515077 347.245655zM498.558873 248.940722c27.300786 0 45.384653 17.963117 45.384653 45.246507 0 27.174919-18.083867 45.382607-45.384653 45.382607-27.181059 0-54.448076-18.207687-54.448076-45.382607C444.11182 266.895653 471.378837 248.940722 498.558873 248.940722L498.558873 248.940722zM244.794285 339.568812c-27.174919 0-54.601572-18.207687-54.601572-45.387723 0-27.285436 27.427676-45.24139 54.601572-45.24139 27.175943 0 45.261856 17.955954 45.261856 45.24139C290.058189 321.361125 271.970228 339.568812 244.794285 339.568812L244.794285 339.568812zM1024.444115 629.844965c0-144.961556-145.05877-263.117606-307.98242-263.117606-172.519192 0-308.393789 118.15605-308.393789 263.117606 0 145.213289 135.874597 263.123746 308.393789 263.123746 36.107359 0 72.529897-9.104355 108.790752-18.195408l99.453083 54.460356-27.267017-90.610694C970.219119 784.018324 1024.444115 711.615317 1024.444115 629.844965L1024.444115 629.844965zM616.471376 584.479755c-18.055215 0-36.266995-17.962094-36.266995-36.285414 0-18.061354 18.213827-36.255739 36.266995-36.255739 27.427676 0 45.387723 18.193361 45.387723 36.255739C661.860123 566.517661 643.899052 584.479755 616.471376 584.479755L616.471376 584.479755zM815.913754 584.479755c-17.928325 0-36.014238-17.962094-36.014238-36.285414 0-18.061354 18.08796-36.255739 36.014238-36.255739 27.175943 0 45.384653 18.193361 45.384653 36.255739C861.297384 566.517661 843.088674 584.479755 815.913754 584.479755L815.913754 584.479755z" p-id="2104"></path></svg>