<?xml version="1.0" standalone="no"?><!DOCTYPE svg PUBLIC "-//W3C//DTD SVG 1.1//EN" "http://www.w3.org/Graphics/SVG/1.1/DTD/svg11.dtd"><svg t="1581066837420" class="icon" viewBox="0 0 1024 1024" version="1.1" xmlns="http://www.w3.org/2000/svg" p-id="2996" xmlns:xlink="http://www.w3.org/1999/xlink" width="48" height="48"><defs><style type="text/css"></style></defs><path d="M390.382933 645.3248c-61.303467 36.9664-70.382933-20.753067-70.382933-20.753067l-76.8-193.877333c-29.559467-92.16 25.565867-41.540267 25.565867-41.540267s47.3088 38.7072 83.217066 62.293334c35.874133 23.620267 76.8 6.929067 76.8 6.929066l502.1696-250.709333C838.280533 82.978133 685.226667 1.4336 511.965867 1.4336 229.205333 1.4336 0 218.4192 0 486.126933c0 153.941333 75.8784 290.986667 194.116267 379.8016l-21.333334 132.573867s-10.376533 38.7072 25.634134 20.753067c24.576-12.253867 87.108267-56.1152 124.347733-82.773334A535.825067 535.825067 0 0 0 512 970.752c282.760533 0 512-216.9856 512-484.693333 0-77.5168-19.319467-150.7328-53.5552-215.722667-159.982933 104.106667-532.138667 346.112-580.061867 374.954667z" p-id="2997"></path></svg>