<?xml version="1.0" standalone="no"?><!DOCTYPE svg PUBLIC "-//W3C//DTD SVG 1.1//EN" "http://www.w3.org/Graphics/SVG/1.1/DTD/svg11.dtd"><svg t="1590465395997" class="icon" viewBox="0 0 1024 1024" version="1.1" xmlns="http://www.w3.org/2000/svg" p-id="3284" xmlns:xlink="http://www.w3.org/1999/xlink" width="48" height="48"><defs><style type="text/css"></style></defs><path d="M922.04032 266.62912L521.6768 34.23232a20.87936 20.87936 0 0 0-23.00928 0L98.304 264.32512h-2.304c-6.90176 4.608-11.49952 11.50976-11.49952 20.71552V747.52c0 9.19552 4.59776 16.10752 11.49952 20.70528l400.36352 234.7008c4.608 2.304 6.90176 2.304 11.50976 2.304 4.59776 0 6.90176 0 11.49952-2.304l402.66752-232.3968c6.90176-4.608 11.49952-11.50976 11.49952-20.70528V287.32416c0.01024-9.19552-4.59776-16.09728-11.49952-20.69504zM484.864 533.53472v407.26528L132.82304 736.01024V328.74496L484.864 533.53472z m197.87776 29.91104v-117.3504l50.61632-29.91104v117.3504l-50.61632 29.91104z m-149.5552-29.91104l101.24288-59.83232v131.15392c0 9.20576 4.59776 16.10752 11.50976 20.70528 4.59776 2.304 11.49952 4.59776 18.40128 2.304 2.304 0 4.59776 0 6.90176-2.304l101.24288-57.52832c6.90176-4.59776 11.49952-11.49952 11.49952-20.70528V388.56704l101.24288-59.82208v407.26528L533.18656 940.8V533.53472z m-126.55616-391.168l101.24288-59.82208 354.34496 204.77952-101.23264 59.83232L406.6304 142.36672z m-98.93888 57.52832l50.61632-29.91104L710.3488 374.76352l-52.92032 29.91104-349.73696-204.77952z m303.72864 232.3968l-101.24288 59.82208-354.3552-204.78976 103.54688-59.82208 352.0512 204.78976z m0 0" p-id="3285"></path></svg>