<?xml version="1.0" standalone="no"?><!DOCTYPE svg PUBLIC "-//W3C//DTD SVG 1.1//EN" "http://www.w3.org/Graphics/SVG/1.1/DTD/svg11.dtd"><svg t="1583843204108" class="icon" viewBox="0 0 1024 1024" version="1.1" xmlns="http://www.w3.org/2000/svg" p-id="1282" xmlns:xlink="http://www.w3.org/1999/xlink" width="48" height="48"><defs><style type="text/css"></style></defs><path d="M655.8 193.1H269.6c-0.5 0-0.9-0.1-1.4-0.1-0.5 0-0.9 0.1-1.4 0.1h-51.9c-13.6 0-24.6 11-24.6 24.6s11 24.6 24.6 24.6h28.7V809c0 13.6 11 24.6 24.6 24.6 13.6 0 24.6-11 24.6-24.6v-23.5h363.1c99.3 0 180-80.8 180-180V373.1c0-99.3-80.8-180-180.1-180z m-35 160.9l3.5-3.3c6.1-5.8 15.8-5.5 21.6 0.6l3.3 3.4c5.8 6.1 5.5 15.8-0.6 21.6l-3.5 3.3c-6.1 5.8-15.8 5.5-21.6-0.6l-3.3-3.4c-5.8-6.2-5.5-15.8 0.6-21.6z m-90.5 0l3.3-3.2c6.1-5.9 15.8-5.6 21.6 0.5l3.2 3.4c5.8 6.1 5.5 15.8-0.6 21.6l-3.4 3.2c-6.1 5.8-15.9 5.5-21.6-0.6l-3.2-3.4c-5.6-6.1-5.3-15.7 0.7-21.5z m-49.9 156.1L464 524.3c-3.3 2.9-5.3 7.1-5.3 11.5v83.8c0 8.4-6.8 15.3-15.3 15.3h-24.3c-8.4 0-15.3-6.8-15.3-15.3v-20.2h17.6c1 0 1.8-0.8 1.8-1.8v-49.8c0-8.4-6.8-15.3-15.3-15.3-8.4 0-15.3-6.8-15.3-15.3v-5c0-8.4 6.8-15.3 15.3-15.3 8.4 0 15.3-6.8 15.3-15.3v-39.1c0-8.4-6.8-15.3-15.3-15.3h-4.3c-8.4 0-15.3-6.8-15.3-15.3V407c0-8.4 6.8-15.3 15.3-15.3h4.3c8.4 0 15.3-6.8 15.3-15.3v-21c0-8.4 6.8-15.3 15.3-15.3h4.9c8.4 0 15.3 6.8 15.3 15.3v22.8c0 7.4 6 13.5 13.5 13.5 7.4 0 13.5 6 13.5 13.5v8.5c0 7.4-6 13.5-13.5 13.5-7.4 0-13.5 6-13.5 13.5v41.4l8.8-7.6 13.4 12.7c6.6 6.4 6.4 16.9-0.5 22.9z m202.5 0.9c0 8.4-6.8 15.3-15.3 15.3h-2c-8.4 0-15.3 6.8-15.3 15.3v77.8c0 8.4-6.8 15.3-15.3 15.3h-4.9c-8.4 0-15.3-6.8-15.3-15.3v-77.8c0-8.4-6.8-15.3-15.3-15.3H579c-8.4 0-15.3 6.8-15.3 15.3v40.9c0 3.2-1 6.3-2.8 8.8l-21.5 30.3c-4.9 6.8-14.4 8.5-21.2 3.6l-3.9-2.7c-6.9-4.9-8.6-14.5-3.6-21.4l14.8-20.6c1.9-2.6 2.9-5.7 2.9-8.9v-30.1c0-8.4-6.8-15.3-15.3-15.3h-2c-8.4 0-15.3-6.8-15.3-15.3V506c0-8.4 6.8-15.3 15.3-15.3h2c8.4 0 15.3-6.8 15.3-15.3v-34.6c0-7.4-6-13.5-13.5-13.5h-0.3c-7.4 0-13.5-6-13.5-13.5v-6.7c0-8.4 6.8-15.3 15.3-15.3h146.1c8.4 0 15.3 6.8 15.3 15.3v6.7c0 7.4-6 13.5-13.5 13.5h-0.3c-7.4 0-13.5 6-13.5 13.5v34.6c0 8.4 6.8 15.3 15.3 15.3h2c8.4 0 15.3 6.8 15.3 15.3v5z" p-id="1283"></path><path d="M599.7 427.5H579c-8.4 0-15.3 6.8-15.3 15.3v32.8c0 8.4 6.8 15.3 15.3 15.3h20.7c8.4 0 15.3-6.8 15.3-15.3v-32.8c-0.1-8.5-6.9-15.3-15.3-15.3z" p-id="1284"></path></svg>