<?xml version="1.0" standalone="no"?><!DOCTYPE svg PUBLIC "-//W3C//DTD SVG 1.1//EN" "http://www.w3.org/Graphics/SVG/1.1/DTD/svg11.dtd"><svg t="1583843198893" class="icon" viewBox="0 0 1293 1024" version="1.1" xmlns="http://www.w3.org/2000/svg" p-id="1143" xmlns:xlink="http://www.w3.org/1999/xlink" width="60.609375" height="48"><defs><style type="text/css"></style></defs><path d="M884.89309189 484.46710513a397.53947351 397.53947351 0 0 1 262.13980298 373.73684189 35.5263154 35.5263154 0 1 1-71.05263163 1e-8 326.30921027 326.30921027 0 1 0-652.61842135 0 35.5263154 35.5263154 0 1 1-71.05263163 0c0-171.94736838 109.24342136-318.40460513 262.09539487-373.7368419a216.44407864 216.44407864 0 1 1 270.48848676 0z m-135.22203892-23.625a145.39144702 145.39144702 0 1 0 0-290.78289487 145.39144702 145.39144702 0 0 0 0 290.78289487z" p-id="1144"></path><path d="M428.82401324 485.26644703a35.39309189 35.39309189 0 0 1-14.78782864 3.19736837A221.77302649 221.77302649 0 0 0 192.26315811 710.23684189a35.5263154 35.5263154 0 1 1-71.05263162 0 292.8700654 292.8700654 0 0 1 165.50822351-263.78289487 164.17598675 164.17598675 0 1 1 219.81907864-243.97697351 35.5263154 35.5263154 0 1 1-47.69407864 52.71217136 93.12335513 93.12335513 0 1 0-16.43092136 150.09868377 35.5263154 35.5263154 0 1 1 35.12664487 61.72697433 163.24342136 163.24342136 0 0 1-48.71546026 18.20723677z" p-id="1145"></path></svg>