<?xml version="1.0" standalone="no"?><!DOCTYPE svg PUBLIC "-//W3C//DTD SVG 1.1//EN" "http://www.w3.org/Graphics/SVG/1.1/DTD/svg11.dtd"><svg t="1564133749260" class="icon" viewBox="0 0 1025 1024" version="1.1" xmlns="http://www.w3.org/2000/svg" p-id="9364" xmlns:xlink="http://www.w3.org/1999/xlink" width="200.1953125" height="200"><defs><style type="text/css"></style></defs><path d="M512.544655 328.274247c49.075232 0 95.212196 19.111033 129.913458 53.812295s53.812295 80.838226 53.812295 129.913458c0 49.075232-19.111033 95.212196-53.812295 129.914482s-80.839249 53.812295-129.913458 53.812295c-49.075232 0-95.212196-19.111033-129.914482-53.812295s-53.812295-80.838226-53.812295-129.914482c0-49.075232 19.111033-95.212196 53.812295-129.913458S463.469422 328.274247 512.544655 328.274247M512.544655 297.560635c-118.431686 0-214.439365 96.007678-214.439365 214.439365 0 118.431686 96.007678 214.440388 214.439365 214.440388 118.431686 0 214.439365-96.007678 214.439365-214.440388C726.984019 393.568314 630.976341 297.560635 512.544655 297.560635L512.544655 297.560635z" p-id="9365"></path><path d="M556.360693 951.204645l-87.632077 0c-50.545391 0-91.665798-41.121431-91.665798-91.665798l0-42.770752c0-25.062307-21.062371-40.574728-40.576776-40.574728-7.017036 0-13.792459 1.85715-20.137891 5.521284l-37.040616 21.384864c-13.927599 8.040824-29.755347 12.291587-45.771472 12.291587-32.678259 0-63.120567-17.566138-79.446899-45.84416l-43.815014-75.891287c-12.242446-21.204677-15.495017-45.907635-9.157775-69.55814s21.504647-43.417785 42.709324-55.660231l37.040616-21.385888c12.672436-7.315982 20.238222-20.420457 20.238222-35.053445s-7.565786-27.737463-20.238222-35.053445l-37.040616-21.385888c-43.773039-25.272183-58.824756-81.444308-33.552573-125.217347l43.816038-75.891287c16.326332-28.278022 46.76864-45.84416 79.446899-45.84416 16.016125 0 31.842849 4.250764 45.771472 12.291587l37.040616 21.384864c6.345432 3.664134 13.120855 5.522307 20.136868 5.521284 19.514405 0 40.576776-15.512421 40.576776-40.574728l0-42.770752c0-50.544367 41.121431-91.665798 91.665798-91.665798l87.632077 0c50.544367 0 91.665798 41.121431 91.665798 91.665798l0 42.770752c0 14.316638 6.666901 23.712956 12.25985 29.073505 7.627214 7.310863 17.946987 11.502248 28.314879 11.501224 7.020108-0.001024 13.796554-1.858173 20.140963-5.521284l37.040616-21.385888c13.927599-8.040824 29.755347-12.291587 45.771472-12.291587 32.678259 0 63.120567 17.566138 79.446899 45.84416l43.816038 75.891287c12.242446 21.203654 15.495017 45.906611 9.157775 69.557116s-21.504647 43.417785-42.709324 55.660231l-37.040616 21.384864c-12.672436 7.315982-20.238222 20.420457-20.238222 35.053445s7.565786 27.737463 20.238222 35.053445l37.040616 21.384864c21.204677 12.242446 36.372083 32.009726 42.709324 55.660231 6.337242 23.650505 3.08467 48.353462-9.157775 69.55814l-43.815014 75.891287c-16.326332 28.278022-46.767616 45.84416-79.442804 45.84416-0.002048 0-0.003071 0-0.005119 0-16.016125-0.001024-31.843872-4.251788-45.770448-12.291587l-37.040616-21.384864c-6.345432-3.664134-13.120855-5.521284-20.137891-5.521284-19.514405 0-40.576776 15.512421-40.576776 40.574728l0 42.770752C648.02649 910.084238 606.90506 951.204645 556.360693 951.204645zM336.486043 725.004015c50.599651 0 91.766129 41.165454 91.766129 91.764081l0 42.770752c0 22.318558 18.157887 40.476445 40.476445 40.476445l87.632077 0c22.318558 0 40.476445-18.157887 40.476445-40.476445l0-42.770752c0-50.598627 41.166477-91.764081 91.766129-91.764081 15.890199 0 31.704637 4.280454 45.732568 12.379633l37.040616 21.384864c6.157055 3.554589 13.134164 5.433238 20.177819 5.434262 14.446659 0.001024 27.901269-7.758258 35.113848-20.24846l43.816038-75.891287c5.405596-9.363556 6.841969-20.270984 4.043959-30.714635-2.79801-10.442628-9.495625-19.171436-18.859181-24.577032l-37.040616-21.384864c-28.698799-16.569993-45.832899-46.246509-45.832899-79.385472s17.1341-62.815478 45.832899-79.385472l37.040616-21.384864c9.363556-5.405596 16.061171-14.134404 18.859181-24.577032 2.79801-10.443652 1.362661-21.351079-4.043959-30.714635l-43.816038-75.891287c-7.211556-12.490202-20.667189-20.249484-35.115896-20.249484-7.041607 0-14.018716 1.878649-20.176795 5.434262l-37.040616 21.384864c-14.023835 8.097132-29.83725 12.377585-45.729496 12.379633-0.003071 0-0.007167 0-0.010238 0-23.440628 0-46.668309-9.379937-63.732792-25.736983-18.072913-17.323501-28.026171-40.773343-28.026171-66.028122l0-42.770752c0-22.318558-18.157887-40.476445-40.476445-40.476445l-87.632077 0c-22.318558 0-40.476445 18.157887-40.476445 40.476445l0 42.770752c0 50.598627-41.165454 91.764081-91.766129 91.764081-15.890199 0-31.704637-4.280454-45.732568-12.379633l-37.040616-21.384864c-6.157055-3.554589-13.134164-5.434262-20.176795-5.434262-14.448707 0-27.90434 7.759282-35.115896 20.249484l-43.815014 75.891287c-11.159279 19.3291-4.512853 44.132388 14.815222 55.291667l37.040616 21.385888c28.698799 16.56897 45.832899 46.245485 45.832899 79.384448s-17.1341 62.815478-45.832899 79.384448l-37.040616 21.385888c-9.363556 5.405596-16.061171 14.134404-18.859181 24.578056s-1.362661 21.351079 4.043959 30.713612l43.815014 75.891287c7.211556 12.490202 20.667189 20.249484 35.115896 20.249484 7.041607 0 14.018716-1.878649 20.175771-5.434262l37.041639-21.384864C304.781405 729.285493 320.59482 725.004015 336.486043 725.004015z" p-id="9366"></path></svg>