<?xml version="1.0" standalone="no"?><!DOCTYPE svg PUBLIC "-//W3C//DTD SVG 1.1//EN" "http://www.w3.org/Graphics/SVG/1.1/DTD/svg11.dtd"><svg t="1581766433549" class="icon" viewBox="0 0 1024 1024" version="1.1" xmlns="http://www.w3.org/2000/svg" p-id="3256" xmlns:xlink="http://www.w3.org/1999/xlink" width="48" height="48"><defs><style type="text/css"></style></defs><path d="M420.096 90.24l180.032 0 0 663.552-180.032 0 0-663.552Z" p-id="3257"></path><path d="M180.224 397.632l179.968 0 0 356.16-179.968 0 0-356.16Z" p-id="3258"></path><path d="M660.032 278.656l180.032 0 0 475.2-180.032 0 0-475.2Z" p-id="3259"></path><path d="M64 816.64l896 0 0 117.12-896 0 0-117.12Z" p-id="3260"></path><path d="M485.76 159.616l114.368 0 0 594.24-114.368 0 0-594.24Z" p-id="3261"></path><path d="M245.824 465.152l114.368 0 0 288.704-114.368 0 0-288.704Z" p-id="3262"></path><path d="M725.696 341.44l114.368 0 0 412.352-114.368 0 0-412.352Z" p-id="3263"></path><path d="M123.072 875.648l836.928 0 0 58.112-836.928 0 0-58.112Z" p-id="3264"></path></svg>