<?xml version="1.0" standalone="no"?><!DOCTYPE svg PUBLIC "-//W3C//DTD SVG 1.1//EN" "http://www.w3.org/Graphics/SVG/1.1/DTD/svg11.dtd"><svg t="1569759681012" class="icon" viewBox="0 0 1024 1024" version="1.1" xmlns="http://www.w3.org/2000/svg" p-id="2503" xmlns:xlink="http://www.w3.org/1999/xlink" width="48" height="48"><defs><style type="text/css"></style></defs><path d="M887.826598 389.474432 136.174426 389.474432c-25.110911 0-43.055608 24.208355-40.117696 53.69083l59.846016 360.486214c2.127454 21.328771 20.853957 38.433334 41.851177 38.433334l628.490108 0c20.99722 0 39.72577-17.104563 41.851177-38.433334l59.846016-360.486214C930.880159 413.682787 912.937508 389.474432 887.826598 389.474432zM806.544363 259.891122 445.128987 259.891122l-59.390645-77.976956L219.091904 181.914166c-25.112957 0-45.468564 20.3597-45.468564 45.470611l0 65.886593 676.755368 0C845.081051 274.028097 827.468928 259.891122 806.544363 259.891122zM891.581108 368.43628l2.178619-19.791765L130.240273 348.644515l2.178619 19.791765L891.581108 368.43628zM875.704512 331.554278l2.840698-20.536732L145.45479 311.017546l2.839675 20.536732L875.704512 331.554278z" p-id="2504"></path></svg>