<?xml version="1.0" standalone="no"?><!DOCTYPE svg PUBLIC "-//W3C//DTD SVG 1.1//EN" "http://www.w3.org/Graphics/SVG/1.1/DTD/svg11.dtd"><svg t="1564192672408" class="icon" viewBox="0 0 1024 1024" version="1.1" xmlns="http://www.w3.org/2000/svg" p-id="1952" xmlns:xlink="http://www.w3.org/1999/xlink" width="200" height="200"><defs><style type="text/css"></style></defs><path d="M824.612571 0c40.886857 0 73.581714 33.353143 74.203429 73.654857v437.540572l-317.513143-1.024a87.771429 87.771429 0 0 0-88.027428 86.601142l-5.12 387.84H128.438857C88.210286 984.612571 54.857143 951.881143 54.857143 910.994286V73.654857C54.857143 33.353143 87.552 0 128.438857 0h696.173714z m-108.8 409.380571c0-21.101714-16.457143-39.021714-36.059428-39.021714H232.228571c-19.602286 0-36.059429 17.261714-36.059428 39.021714 0 21.101714 16.457143 39.021714 36.059428 39.021715h447.561143c20.224 0 36.059429-17.261714 36.059429-39.021715zM231.497143 518.180571c-19.565714 0-36.022857 17.261714-36.022857 39.021715 0 21.138286 16.457143 39.058286 36.022857 39.058285h176.384c19.602286 0 36.059429-17.298286 36.059428-39.058285 0-21.101714-16.457143-39.021714-36.059428-39.021715H231.533714z m0.658286-229.12h447.561142c19.602286 0 36.059429-17.261714 36.059429-39.021714 0-21.138286-16.457143-39.058286-36.059429-39.058286H232.228571c-19.602286 0-36.059429 17.298286-36.059428 39.058286 0 21.76 16.457143 39.021714 36.059428 39.021714z" p-id="1953"></path><path d="M920.612571 896.475429l33.901715 33.901714a47.067429 47.067429 0 0 1 0 68.205714 47.067429 47.067429 0 0 1-68.169143 0l-40.045714-40.045714a226.523429 226.523429 0 0 1-105.728 26.075428c-125.732571 0-228.571429-102.838857-228.571429-228.571428 0-125.696 102.875429-228.571429 228.571429-228.571429 125.732571 0 228.571429 102.875429 228.571428 228.571429a227.218286 227.218286 0 0 1-48.530286 140.434286z m-181.394285-284.598858a141.458286 141.458286 0 0 0-142.811429 142.848 141.458286 141.458286 0 0 0 142.848 142.848 141.458286 141.458286 0 0 0 142.848-142.848 141.458286 141.458286 0 0 0-142.848-142.848z" p-id="1954"></path></svg>