<?xml version="1.0" standalone="no"?><!DOCTYPE svg PUBLIC "-//W3C//DTD SVG 1.1//EN" "http://www.w3.org/Graphics/SVG/1.1/DTD/svg11.dtd"><svg t="1564192687838" class="icon" viewBox="0 0 1024 1024" version="1.1" xmlns="http://www.w3.org/2000/svg" p-id="2266" xmlns:xlink="http://www.w3.org/1999/xlink" width="200" height="200"><defs><style type="text/css"></style></defs><path d="M726.016 584.0896c0-0.2048-0.2048-0.4096-0.4096-0.4096L299.4176 583.68c-0.2048 0-0.4096 0.2048-0.4096 0.4096l0 42.1888c0 0.2048 0.2048 0.4096 0.4096 0.4096l426.1888 0c0.2048 0 0.4096-0.2048 0.4096-0.4096L726.016 584.0896z" p-id="2267"></path><path d="M555.008 696.7296c0-0.2048-0.2048-0.4096-0.4096-0.4096L299.4176 696.32c-0.2048 0-0.4096 0.2048-0.4096 0.4096l0 42.1888c0 0.2048 0.2048 0.4096 0.4096 0.4096l255.1808 0c0.2048 0 0.4096-0.2048 0.4096-0.4096L555.008 696.7296z" p-id="2268"></path><path d="M726.016 472.4736c0-0.2048-0.2048-0.4096-0.4096-0.4096L299.4176 472.064c-0.2048 0-0.4096 0.2048-0.4096 0.4096l0 42.1888c0 0.2048 0.2048 0.4096 0.4096 0.4096l426.1888 0c0.2048 0 0.4096-0.2048 0.4096-0.4096L726.016 472.4736z" p-id="2269"></path><path d="M726.016 286.1056c0-0.2048-0.2048-0.4096-0.4096-0.4096L299.4176 285.696c-0.2048 0-0.4096 0.2048-0.4096 0.4096l0 42.1888c0 0.2048 0.2048 0.4096 0.4096 0.4096l426.1888 0c0.2048 0 0.4096-0.2048 0.4096-0.4096L726.016 286.1056z" p-id="2270"></path><path d="M789.2992 63.488l-268.288 0-60.8256 0L234.7008 63.488C175.8208 63.488 128 112.8448 128 172.9536l0 678.0928c0 60.1088 47.8208 108.4416 106.7008 108.4416l554.7008 0c58.7776 0 106.7008-48.4352 106.7008-108.4416L896.1024 172.9536C896 112.8448 848.1792 63.488 789.2992 63.488zM852.992 851.0464c0 36.0448-28.3648 65.4336-63.6928 65.4336L234.7008 916.48c-35.328 0-63.6928-29.3888-63.6928-65.4336L171.008 172.9536c0-36.0448 28.3648-65.4336 63.6928-65.4336l230.2976 0 51.4048 0 272.9984 0c35.328 0 63.6928 29.3888 63.6928 65.4336L853.0944 851.0464z" p-id="2271"></path></svg>