<?xml version="1.0" standalone="no"?><!DOCTYPE svg PUBLIC "-//W3C//DTD SVG 1.1//EN" "http://www.w3.org/Graphics/SVG/1.1/DTD/svg11.dtd"><svg t="1581772961801" class="icon" viewBox="0 0 1024 1024" version="1.1" xmlns="http://www.w3.org/2000/svg" p-id="1958" xmlns:xlink="http://www.w3.org/1999/xlink" width="48" height="48"><defs><style type="text/css"></style></defs><path d="M998.592 544.32l-138.112-440.576L156.16 253.12l33.088 109.504L24 406.272c0 0 77.12 245.888 127.872 408.064 50.816 162.048 173.504 85.12 173.504 85.12s532.288-223.872 613.12-257.984C1014.784 609.472 998.592 544.32 998.592 544.32zM207.808 787.264 102.656 452.032l106.24-24.576 129.344 433.344 45.312-27.52C239.424 910.656 207.808 787.264 207.808 787.264zM918.464 605.504c0 0-101.184 39.232-219.008 87.552L623.872 452.096 376.448 529.344l83.52 266.624c-24.64 11.52-46.784 22.144-65.28 31.616L265.216 414.528l0 0L229.12 299.072l614.528-141.504c0 0 95.232 304.384 114.048 364.352S918.464 605.504 918.464 605.504z" p-id="1959"></path><path d="M880.576 386.24 675.2 451.392 691.264 502.784 895.552 433.92Z" p-id="1960"></path><path d="M701.504 535.424 717.504 586.752 920 511.936 905.024 464.256Z" p-id="1961"></path><path d="M418.048 306.24l12.992 41.344c6.72 21.44 13.44 40.448 21.184 58.688L451.776 406.4c-11.712-14.144-25.6-29.632-39.04-42.368l-47.424-44.8L325.056 329.216l45.824 146.24 31.296-9.28L388.48 422.528c-7.36-23.68-14.208-43.904-21.312-62.912L368 359.36C380.352 374.4 396.224 390.336 409.856 403.328l48.448 46.272 33.792-9.984L448.064 298.88 418.048 306.24z" p-id="1962"></path><path d="M542.592 396.672 532.288 364.032 581.824 350.336 574.016 325.376 524.352 338.496 515.392 309.888 568.064 296.384 560.128 271.232 476.032 291.968 519.68 431.424 605.44 406.208 597.504 380.992Z" p-id="1963"></path><path d="M672.704 324.416c-1.216-14.144-3.136-27.136-5.504-42.56l0.384-0.064c6.272 14.592 12.032 26.304 18.56 38.912l28.032 53.376 29.504-8.64-9.664-136.96-27.52 6.784 6.656 55.296c2.432 16.192 4.416 32.128 7.168 47.104L720 337.792c-6.4-13.952-12.608-27.328-20.16-41.792l-27.008-52.48-29.952 7.36 6.208 56.768c1.984 17.344 4.032 34.112 6.592 49.152l-0.448 0.064c-6.272-12.864-14.272-29.312-22.144-44.48L606.144 259.904 574.656 267.648l72.768 126.144 31.296-9.28L672.704 324.416z" p-id="1964"></path><path d="M798.144 291.712c15.168 1.408 22.08 4.352 24.512 12.224 2.56 8.128-1.92 15.232-13.696 18.688-10.944 3.072-23.104 2.304-31.232 0.256l2.112 25.216c7.744 2.112 21.952 2.24 35.008-1.664 30.72-9.088 39.168-30.912 32.704-51.712-5.44-17.536-18.048-26.496-40.384-29.376-16.832-2.176-24.32-4.032-26.688-12.096-1.984-6.4 1.6-13.568 12.8-16.384 10.88-2.816 20.032-1.408 25.216 0l-1.344-24.128c-7.744-1.728-17.728-2.24-30.784 0.896-26.88 6.592-38.592 27.2-31.808 49.024C760.32 281.024 776.768 289.344 798.144 291.712z" p-id="1965"></path></svg>