<?xml version="1.0" standalone="no"?><!DOCTYPE svg PUBLIC "-//W3C//DTD SVG 1.1//EN" "http://www.w3.org/Graphics/SVG/1.1/DTD/svg11.dtd"><svg t="1564133583473" class="icon" viewBox="0 0 1024 1024" version="1.1" xmlns="http://www.w3.org/2000/svg" p-id="4278" xmlns:xlink="http://www.w3.org/1999/xlink" width="200" height="200"><defs><style type="text/css"></style></defs><path d="M411.8 154.5h35.4v51.2h-35.4zM302.8 154.5h35.4v51.2h-35.4zM520.8 154.5h35.4v51.2h-35.4zM266.1 262.2c14 0 25.4-11.4 25.4-25.4V126.5c0-14-11.4-25.4-25.4-25.4-14 0-25.4 11.4-25.4 25.4v110.3c0 13.9 11.4 25.4 25.4 25.4zM375 262.2c14 0 25.4-11.4 25.4-25.4V126.5c0-14-11.4-25.4-25.4-25.4-14 0-25.4 11.4-25.4 25.4v110.3c0 13.9 11.5 25.4 25.4 25.4zM484 262.2c14 0 25.4-11.4 25.4-25.4V126.5c0-14-11.4-25.4-25.4-25.4s-25.4 11.4-25.4 25.4v110.3c0 13.9 11.5 25.4 25.4 25.4zM732.6 233.2c0-43.4-35.3-78.8-78.8-78.8h-24v51.2h24c15.2 0 27.5 12.4 27.5 27.5v137.5l51.2-64.6v-72.8z" p-id="4279"></path><path d="M681.3 825.4c0 15.2-12.3 27.5-27.5 27.5H205.3c-15.2 0-27.5-12.3-27.5-27.5V233.2c0-15.2 12.3-27.5 27.5-27.5h24v-51.2h-24c-43.4 0-78.8 35.3-78.8 78.8v592.2c0 43.4 35.3 78.8 78.8 78.8h448.5c43.4 0 78.8-35.3 78.8-78.8V650l-51.2 64.6v110.8zM593 262.2c14 0 25.4-11.4 25.4-25.4V126.5c0-14-11.4-25.4-25.4-25.4-14 0-25.4 11.4-25.4 25.4v110.3c0 13.9 11.4 25.4 25.4 25.4z" p-id="4280"></path><path d="M261.7 406.1l335.6-0.2c15.1 0 27.4-12.3 27.4-27.4 0-15.1-12.3-27.4-27.4-27.4l-335.6 0.2c-15.1 0-27.4 12.3-27.4 27.4 0 15 12.4 27.4 27.4 27.4zM261.7 483c-15.1 0-27.4 12.3-27.4 27.4 0 15.1 12.3 27.4 27.4 27.4l287.3-0.2 43.5-54.8-330.8 0.2zM951.3 286.7L869 221.5c-11.2-8.9-27.5-7-36.3 4.2l-45.2 57 122.8 97.4 45.2-57c8.8-11.2 7-27.5-4.2-36.4zM261.7 614.7c-15.1 0-27.4 12.3-27.4 27.4 0 15.1 12.3 27.4 27.4 27.4l206.1-0.1 3-15.2 4.6-23.8 3.1-15.8-216.8 0.1z" p-id="4281"></path><path d="M767.4 308.1L752 327.5 732.6 352l-51.2 64.6-61.7 77.8-34.3 43.2-61 77-4.6 5.8-2.3 2.9-15.4 19.4-5.2 26.8-0.9 4.7L472.6 794c-1.4 7.1 5.1 12.3 11.8 9.3l111.3-50.1 29.2-13.2h0.1l17.7-22.3 38.7-48.8 51.2-64.6 157.6-198.8-122.8-97.4z m-189 431.3l-47.7 21.5-27.5-21.8 10-51.4 1.3-6.7 70.1 55.6-6.2 2.8z m154.2-311.3l-51.2 64.6-96.6 121.8-15.8 19.9c-4.9 6.1-13.3 7.6-18.8 3.2-5.5-4.4-6-12.9-1.2-19.1l3.2-4 129.1-162.9 51.2-64.6 22.1-27.8c4.9-6.1 13.3-7.6 18.8-3.2 5.5 4.4 6 12.9 1.2 19.1l-42 53z" p-id="4282"></path></svg>