<?xml version="1.0" standalone="no"?><!DOCTYPE svg PUBLIC "-//W3C//DTD SVG 1.1//EN" "http://www.w3.org/Graphics/SVG/1.1/DTD/svg11.dtd"><svg t="1564133670485" class="icon" viewBox="0 0 1026 1024" version="1.1" xmlns="http://www.w3.org/2000/svg" p-id="7307" xmlns:xlink="http://www.w3.org/1999/xlink" width="200.390625" height="200"><defs><style type="text/css"></style></defs><path d="M555.52 0h84.48v43.52h-84.48zM256 468.48c0 140.8 115.2 256 256 256s256-115.2 256-256-115.2-256-256-256-256 115.2-256 256zM512 256c61.44 0 117.76 28.16 156.16 69.12l-199.68 199.68-69.12-69.12-30.72 30.72 99.84 99.84 225.28-225.28c20.48 33.28 30.72 69.12 30.72 110.08 0 117.76-94.72 212.48-212.48 212.48s-212.48-94.72-212.48-212.48c0-117.76 94.72-215.04 212.48-215.04z" p-id="7308"></path><path d="M811.52 0h-84.48v43.52h46.08c17.92 107.52 102.4 192 209.92 209.92V512c0 199.68-322.56 396.8-468.48 465.92-148.48-69.12-471.04-266.24-471.04-465.92V253.44c107.52-17.92 192-102.4 209.92-209.92h217.6V0h-256c0 117.76-94.72 212.48-212.48 212.48V512c0 281.6 512 512 512 512s512-230.4 512-512V212.48c-120.32 0-215.04-94.72-215.04-212.48z" p-id="7309"></path></svg>