<?xml version="1.0" standalone="no"?><!DOCTYPE svg PUBLIC "-//W3C//DTD SVG 1.1//EN" "http://www.w3.org/Graphics/SVG/1.1/DTD/svg11.dtd"><svg t="1564134766992" class="icon" viewBox="0 0 1024 1024" version="1.1" xmlns="http://www.w3.org/2000/svg" p-id="15153" xmlns:xlink="http://www.w3.org/1999/xlink" width="200" height="200"><defs><style type="text/css"></style></defs><path d="M501.041414 62.931285c125.654838 0 227.51269 100.19498 227.51269 223.775576 0 123.605156-101.856829 223.805252-227.51269 223.805252-125.650745 0-227.506551-100.199073-227.506551-223.805252C273.53384 163.097612 375.424438 62.931285 501.041414 62.931285L501.041414 62.931285 501.041414 62.931285zM501.041414 62.931285c125.654838 0 227.51269 100.19498 227.51269 223.775576 0 123.605156-101.856829 223.805252-227.51269 223.805252-125.650745 0-227.506551-100.199073-227.506551-223.805252C273.53384 163.097612 375.424438 62.931285 501.041414 62.931285L501.041414 62.931285 501.041414 62.931285zM415.730423 585.125461l189.629895 0c162.314783 0 293.880237 129.387859 293.880237 289.057395l0 18.622126c0 62.922075-131.593084 65.313541-293.880237 65.313541L415.730423 958.118524c-162.319899 0-293.880237-0.092098-293.880237-65.313541l0-18.622126C121.852232 714.51332 253.411547 585.125461 415.730423 585.125461L415.730423 585.125461 415.730423 585.125461z" p-id="15154"></path></svg>