<?xml version="1.0" standalone="no"?><!DOCTYPE svg PUBLIC "-//W3C//DTD SVG 1.1//EN" "http://www.w3.org/Graphics/SVG/1.1/DTD/svg11.dtd"><svg t="1564134883542" class="icon" viewBox="0 0 1024 1024" version="1.1" xmlns="http://www.w3.org/2000/svg" p-id="15872" xmlns:xlink="http://www.w3.org/1999/xlink" width="200" height="200"><defs><style type="text/css"></style></defs><path d="M512 972.20608a460.22656 460.22656 0 1 1 460.8-460.22144 460.50816 460.50816 0 0 1-460.8 460.22144z m0-869.248a409.6 409.6 0 1 0 409.56416 409.6 409.6 409.6 0 0 0-409.56416-409.6z m317.47584 413.51168v-0.08192c0 0.3072-0.0512 0.58368-0.0512 0.85504-0.03072 0.1536-0.03072 0.30208-0.0512 0.42496 0 0.2048-0.05632 0.43008-0.0768 0.62976l-0.08192 0.73216v0.08192a27.45856 27.45856 0 0 1-6.69696 14.336c-6.72768 8.66304-14.06464 16.7936-21.4272 24.7808a558.592 558.592 0 0 1-135.74144 109.4656 347.96032 347.96032 0 0 1-101.71392 39.10144 277.43232 277.43232 0 0 1-116.88448-1.7664c-67.15904-15.52896-128-54.16448-181.17632-100.32128a510.62784 510.62784 0 0 1-69.39136-71.2448 28.55424 28.55424 0 0 1 0-36.72064c6.69696-8.66304 14.05952-16.8192 21.42208-24.7808a557.94688 557.94688 0 0 1 135.73632-109.41952 347.70432 347.70432 0 0 1 101.7088-39.1168 277.55008 277.55008 0 0 1 116.85376 1.7408c67.16416 15.5392 128 54.1952 181.17632 100.352a508.54912 508.54912 0 0 1 69.39648 71.2448 26.97216 26.97216 0 0 1 6.70208 14.336 0.09216 0.09216 0 0 0 0 0.0768l0.08192 0.73216 0.11264 0.65024v0.43008a7.89504 7.89504 0 0 1 0.05632 0.84992c0 0.45568 0.0512 0.88576 0.0512 1.31072l-0.00512 1.32608zM509.44 381.99808c-66.2784 0-120.00768 57.18528-120.00768 127.77472s53.76 127.75424 120.00768 127.75424 120.0384-57.1904 120.0384-127.75424S575.74912 381.99808 509.44 381.99808z m0 191.616c-33.12128 0-60.0064-28.61056-60.0064-63.86688s26.86976-63.86176 60.0064-63.86176 60.0064 28.60032 60.00128 63.88736-26.83904 63.86688-60.00128 63.86688z" p-id="15873"></path></svg>