<?xml version="1.0" standalone="no"?><!DOCTYPE svg PUBLIC "-//W3C//DTD SVG 1.1//EN" "http://www.w3.org/Graphics/SVG/1.1/DTD/svg11.dtd"><svg t="1587611083782" class="icon" viewBox="0 0 1024 1024" version="1.1" xmlns="http://www.w3.org/2000/svg" p-id="2364" xmlns:xlink="http://www.w3.org/1999/xlink" width="48" height="48"><defs><style type="text/css"></style></defs><path d="M261.125801 663.026588a30.079304 30.079304 0 0 1-22.399482-9.599778L41.610878 456.311368a30.079304 30.079304 0 0 1-9.599778-22.399482V32.00118A31.99926 31.99926 0 0 1 64.01036 0.00192h401.910706a30.079304 30.079304 0 0 1 22.399482 9.599778l218.874938 218.234953a32.639245 32.639245 0 0 1 9.599778 23.679453 33.919216 33.919216 0 0 1-10.879748 23.039467l-423.670203 380.151209a29.439319 29.439319 0 0 1-21.119512 8.319808zM96.00962 420.472197l166.396152 166.396152L639.99704 249.596148 452.481376 64.00044H96.00962z m236.154539 0a121.597188 121.597188 0 1 1 120.957203-120.317218 121.597188 121.597188 0 0 1-120.957203 120.957203z m0-178.555871a57.598668 57.598668 0 1 0 56.958683 57.598668 57.598668 57.598668 0 0 0-56.958683-56.958683z" p-id="2365"></path><path d="M575.99852 1023.978241a31.99926 31.99926 0 0 1-22.399482-9.599779L281.605328 741.104782a31.359275 31.359275 0 0 1 0-43.518994l380.151209-423.670202a35.839171 35.839171 0 0 1 23.039467-10.879749 31.99926 31.99926 0 0 1 23.679453 9.599778l295.033177 295.033178a32.639245 32.639245 0 0 1 0 44.798964l-403.190676 401.910705A32.639245 32.639245 0 0 1 575.99852 1023.978241z m-227.834731-306.552911L575.99852 946.540031l358.391712-356.471756-248.954243-248.314258z" p-id="2366"></path><path d="M147.208436 925.42052a30.079304 30.079304 0 0 1-19.199556-9.599778L41.610878 831.98268a30.71929 30.71929 0 0 1-9.599778-23.039467 29.439319 29.439319 0 0 1 10.879748-23.039467L859.511964 53.120692a32.639245 32.639245 0 0 1 44.158979 0 33.27923 33.27923 0 0 1 0 44.158978L170.887888 914.540771a29.439319 29.439319 0 0 1-23.039467 10.879749z m-36.479157-113.917366l35.199186 35.199186L458.241243 499.190376z" p-id="2367"></path></svg>