<?xml version="1.0" standalone="no"?><!DOCTYPE svg PUBLIC "-//W3C//DTD SVG 1.1//EN" "http://www.w3.org/Graphics/SVG/1.1/DTD/svg11.dtd"><svg t="1587606227074" class="icon" viewBox="0 0 1024 1024" version="1.1" xmlns="http://www.w3.org/2000/svg" p-id="1527" xmlns:xlink="http://www.w3.org/1999/xlink" width="48" height="48"><defs><style type="text/css"></style></defs><path d="M504.787121 16.587353c-278.279557 0-503.868569 225.589013-503.868569 503.868569 0 278.279557 225.589013 503.868569 503.868569 503.868569s503.868569-225.589013 503.868569-503.868569C1008.65569 242.176366 783.06567 16.587353 504.787121 16.587353zM504.787121 984.015006c-256.016628 0-463.559084-207.542456-463.559084-463.559084 0-256.016628 207.542456-463.559084 463.559084-463.559084s463.559084 207.542456 463.559084 463.559084C968.346205 776.47255 760.803749 984.015006 504.787121 984.015006z" p-id="1528"></path><path d="M401.792355 902.582791 497.459865 565.971378 310.943844 565.875643 529.693345 135.993119 472.003417 459.870766 694.881616 459.663172Z" p-id="1529"></path><path d="M504.787121 16.459371c-277.981266 0-503.330437 225.348163-503.330437 503.32943 0 277.983282 225.349171 503.330437 503.330437 503.330437 277.982274 0 503.330437-225.347156 503.330437-503.330437C1008.117559 241.807534 782.769395 16.459371 504.787121 16.459371zM504.787121 970.571792c-248.960452 0-450.781984-201.820524-450.781984-450.782992 0-248.959444 201.821532-450.781984 450.781984-450.781984 248.96146 0 450.780977 201.82254 450.780977 450.781984C955.568098 768.751268 753.748581 970.571792 504.787121 970.571792z" p-id="1530"></path></svg>