<?xml version="1.0" standalone="no"?><!DOCTYPE svg PUBLIC "-//W3C//DTD SVG 1.1//EN" "http://www.w3.org/Graphics/SVG/1.1/DTD/svg11.dtd"><svg t="1582875174060" class="icon" viewBox="0 0 1024 1024" version="1.1" xmlns="http://www.w3.org/2000/svg" p-id="2262" xmlns:xlink="http://www.w3.org/1999/xlink" width="48" height="48"><defs><style type="text/css"></style></defs><path d="M789.8112 234.1888C715.5712 159.9488 616.96 119.0912 512 119.0912s-203.5712 40.8576-277.8112 115.0976S119.0912 407.04 119.0912 512s40.8576 203.5712 115.0976 277.8112S407.04 904.9088 512 904.9088s203.5712-40.8576 277.8112-115.0976S904.9088 616.96 904.9088 512s-40.8576-203.5712-115.0976-277.8112z m-68.1984 242.3808l-78.6432 76.6976L661.504 661.504c2.3552 13.9264-3.1744 27.648-14.6432 35.9424-6.4512 4.7104-14.0288 7.0656-21.6064 7.0656-5.8368 0-11.6736-1.4336-17.1008-4.3008l-97.28-51.0976-97.28 51.0976c-12.4928 6.5536-27.3408 5.5296-38.7072-2.7648-11.3664-8.2944-16.9984-22.1184-14.6432-35.9424L378.88 553.1648l-78.6432-76.6976c-10.1376-9.8304-13.7216-24.2688-9.3184-37.6832 4.4032-13.4144 15.7696-23.04 29.696-24.9856l108.6464-15.7696 48.64-98.5088c6.2464-12.6976 18.8416-20.48 32.9728-20.48 14.1312 0 26.7264 7.8848 32.9728 20.48l48.64 98.5088 108.6464 15.7696c13.9264 2.048 25.3952 11.5712 29.696 25.088 4.5056 13.312 0.9216 27.7504-9.216 37.6832z" p-id="2263"></path></svg>