<?xml version="1.0" standalone="no"?><!DOCTYPE svg PUBLIC "-//W3C//DTD SVG 1.1//EN" "http://www.w3.org/Graphics/SVG/1.1/DTD/svg11.dtd"><svg t="1582875190039" class="icon" viewBox="0 0 1024 1024" version="1.1" xmlns="http://www.w3.org/2000/svg" p-id="3006" xmlns:xlink="http://www.w3.org/1999/xlink" width="48" height="48"><defs><style type="text/css"></style></defs><path d="M946.968068 1023.963161 77.030909 1023.963161c-24.858154 0-44.99682-21.499663-44.99682-47.997154L32.034089 176.025039c0-26.497491 20.139689-47.996131 44.99682-47.996131l89.992617 0 0 47.996131c0 61.870116 47.012733 111.992677 104.992239 111.992677 57.980529 0 104.994286-50.122561 104.994286-111.992677l0-47.995107 269.980921 0 0 47.996131c0 61.870116 47.009663 111.992677 104.993263 111.992677 57.979506 0 104.991216-50.122561 104.991216-111.992677l0-47.996131 89.994664 0c24.858154 0 44.99682 21.49864 44.99682 47.996131l0 799.939945C991.964888 1002.463498 971.826222 1023.963161 946.968068 1023.963161zM901.970224 384.008954 122.028753 384.008954l0 543.960922 779.941472 0L901.970224 384.008954zM362.009406 607.994308c12.421914 0 23.670096 5.374404 31.825846 14.062274l73.166393 78.054727 178.176029-190.048427c8.139378-8.686846 19.388583-14.06125 31.809473-14.06125 24.858154 0 44.997843 21.497617 44.997843 47.994084 0 13.248745-5.030573 25.251104-13.187347 33.93488L498.812141 801.914926c-8.139378 8.68787-19.387559 14.062274-31.810496 14.062274-12.420891 0-23.669072-5.374404-31.825846-14.062274L330.184583 689.927365c-8.140401-8.685823-13.169951-20.690228-13.169951-33.936927C317.013609 629.489878 337.153298 607.994308 362.009406 607.994308zM751.982188 224.020146c-24.841781 0-44.998867-21.497617-44.998867-47.996131L706.983321 48.033993c0-26.498514 20.155039-47.997154 44.998867-47.997154 24.858154 0 44.99682 21.49864 44.99682 47.997154l0 127.990023C796.979008 202.523553 776.840342 224.020146 751.982188 224.020146zM272.015765 224.020146c-24.857131 0-44.99682-21.497617-44.99682-47.996131L227.018945 48.033993c0-26.498514 20.139689-47.997154 44.99682-47.997154 24.841781 0 44.998867 21.49864 44.998867 47.997154l0 127.990023C317.013609 202.523553 296.85857 224.020146 272.015765 224.020146z" p-id="3007"></path></svg>