<?xml version="1.0" standalone="no"?><!DOCTYPE svg PUBLIC "-//W3C//DTD SVG 1.1//EN" "http://www.w3.org/Graphics/SVG/1.1/DTD/svg11.dtd"><svg t="1564133570755" class="icon" viewBox="0 0 1024 1024" version="1.1" xmlns="http://www.w3.org/2000/svg" p-id="3974" xmlns:xlink="http://www.w3.org/1999/xlink" width="200" height="200"><defs><style type="text/css"></style></defs><path d="M314.626235 664.993486l-94.089935-38.943964 20.822235-90.082668c-8.54256-7.28287-16.559141-15.301498-23.945365-23.953551l-90.12667 20.869307-38.991036-94.051049 78.484515-49.013297c-0.906649-11.233855-0.905626-22.583344-0.011256-33.863249l-78.480422-48.952922 38.938847-94.078679 90.12974 20.820188c7.302313-8.562003 15.312754-16.567327 23.937179-23.938202l-20.892843-90.14509 94.058213-38.980803 48.999994 78.466096c11.260461-0.896416 22.598694-0.8913 33.866319 0.004093l48.946782-78.484515 94.088912 38.944987-20.821211 90.083691c8.543583 7.280824 16.561188 15.300474 23.946388 23.953551l90.12667-20.868283 38.988989 94.050026-78.484515 49.010227c0.907673 11.235902 0.912789 22.574135 0.013303 33.864272l78.480422 48.953945-38.943964 94.088912-90.11439-20.87647c-7.284917 8.550747-15.300474 16.570397-23.940249 23.934109l20.903076 90.149183-94.054119 38.981826-49.019437-78.43335c-11.267625 0.907673-22.601764 0.903579-33.870412 0.011256L314.626235 664.993486zM249.496889 611.137905l55.178717 22.840194 46.069245-73.860195 7.824199 0.929162c14.556531 1.704828 29.320793 1.706875 43.877323-0.00614l7.817036-0.911766 46.124504 73.79368 55.161321-22.874987-19.658735-84.788082 6.164397-4.88424c11.594059-9.188266 22.036899-19.638269 31.035854-31.04711l4.882194-6.199189 84.785012 19.646456 22.838148-55.17974-73.840752-46.062082 0.910743-7.819083c1.719154-14.602579 1.708921-29.356608-0.01228-43.874253l-0.933255-7.819083 73.856102-46.122457-22.86066-55.16746-84.789105 19.635199-4.882194-6.158257c-9.202593-11.623735-19.648502-22.066575-31.035854-31.04711l-6.191003-4.876054 19.586081-84.764546L456.224184 111.682615l-46.057989 73.847915-7.820106-0.926092c-14.567787-1.707898-29.338189-1.702782-43.892673 0.011256l-7.818059 0.914836-46.110177-73.840752-55.158251 22.874987 19.657712 84.800361-6.17156 4.892427c-11.56029 9.148357-22.00927 19.6045-31.029714 31.036877l-4.881171 6.175653-84.798315-19.599384-22.844288 55.189973 73.855078 46.056965-0.916882 7.816013c-1.715061 14.602579-1.713015 29.366841 0.010233 43.880393l0.929162 7.822153-73.855078 46.119387 22.86373 55.17053 84.785012-19.635199 4.883217 6.15928c9.210779 11.625782 19.651572 22.066575 31.039947 31.039947l6.186909 4.88424L249.496889 611.137905z" p-id="3975"></path><path d="M317.903885 675.209152 210.999087 630.962415l21.277606-92.056626c-6.225795-5.560646-12.187577-11.525498-17.800411-17.809621l-92.097558 21.325701L78.077751 435.56005l80.19753-50.082652c-0.478907-8.344039-0.480954-16.775059-0.00614-25.176402l-80.196507-50.0233 44.242643-106.892519 92.102674 21.276582c5.560646-6.224772 11.519358-12.18246 17.793248-17.790178l-21.350261-92.119047 106.871029-44.289716 50.072419 80.18218c8.365528-0.473791 16.777105-0.471744 25.177426 0.004093l50.016137-80.199577 106.903775 44.248783-21.276582 92.055602c6.227842 5.560646 12.189623 11.525498 17.801435 17.810644l92.097558-21.324678 44.298925 106.860796-80.19753 50.079582c0.481977 8.361435 0.485047 16.794501 0.00921 25.178449l80.195483 50.0233-44.248783 106.905822-92.085278-21.332864c-5.569856 6.241145-11.529591 12.19781-17.794271 17.788132l21.35947 92.117001-106.86489 44.290739-50.089815-80.145341c-8.360412 0.479931-16.771989 0.481977-25.183566 0.00614L317.903885 675.209152zM230.074537 621.136629l81.276095 33.640168 47.910173-76.81755 4.959965 0.39295c10.832719 0.857531 21.832238 0.854461 32.56672-0.011256l4.960988-0.399089 47.984874 76.776617 81.244372-33.67189-20.461007-88.242763 3.789303-3.229554c8.267291-7.046486 16.011672-14.788821 23.01825-23.01211l3.228531-3.790326 88.205924 20.434401 33.638121-81.272002-76.82062-47.919383 0.396019-4.962012c0.862647-10.824533 0.858554-21.776979-0.01228-32.555463l-0.402159-4.965082 76.827783-47.975664-33.67803-81.240279-88.217181 20.426215-3.228531-3.78214c-7.088442-8.30413-14.835893-16.054651-23.030529-23.037692l-3.786233-3.226484 20.380166-88.175225-81.275072-33.641191-47.910173 76.822666-4.960988-0.393973c-10.8143-0.859577-21.820981-0.860601-32.568766-0.004093l-4.958942 0.394996-47.962362-76.80527-81.246419 33.670867 20.448728 88.231507-3.77907 3.229554c-8.289804 7.083326-16.037255 14.830777-23.026436 23.026436l-3.226484 3.783163-88.218204-20.379143-33.636075 81.265862 76.81755 47.917336-0.39295 4.958942c-0.860601 10.858302-0.856507 21.811772 0.010233 32.55751l0.401136 4.964058-76.827783 47.978734 33.680077 81.241302 88.217181-20.426215 3.228531 3.78214c7.089465 8.30413 14.83794 16.054651 23.030529 23.039739l3.78521 3.226484L230.074537 621.136629zM307.951209 644.194788l-67.991534-28.14399 19.978007-86.465281-2.116197-1.670036c-11.878538-9.358135-22.775726-20.2543-32.383548-32.381501l-1.663896-2.098801-86.49598 20.032242-28.172643-67.982324 75.329662-47.040363-0.317225-2.663666c-1.797949-15.148002-1.802042-30.55797-0.011256-45.801139l0.312108-2.660596-75.335802-46.981011 28.148084-68.004837 86.503143 19.993357 1.665942-2.108011c9.423627-11.943007 20.316721-22.839171 32.372292-32.380478l2.106987-1.670036-20.053732-86.509283 67.969021-28.187993 47.037293 75.325569 2.668783-0.312108c15.116279-1.778506 30.67565-1.784646 45.797046-0.010233l2.669806 0.316202 46.978964-75.323523 67.992557 28.142967-19.976984 86.459141 2.111081 1.662873c11.907191 9.389858 22.802332 20.289092 32.388664 32.396851l1.661849 2.095731 86.500073-20.031219 28.16855 67.978231-75.327616 47.041386 0.317225 2.65855c1.799996 15.182794 1.805112 30.590715 0.014326 45.801139l-0.310062 2.660596 75.325569 46.988174-28.14399 67.997674-86.479607-20.039405-1.665942 2.115174c-9.405207 11.924587-20.299325 22.822798-32.383548 32.398898l-2.104941 1.666966 20.055778 86.494956-67.971068 28.185946-47.053666-75.27952-2.672876 0.312108c-15.086603 1.774413-30.640857 1.778506-45.777603 0.005117l-2.675946-0.318248L307.951209 644.194788zM259.034103 606.225011l42.364877 17.537422 45.150316-72.385611 12.984732 1.542122c13.847379 1.622964 28.113291 1.62194 41.955554-0.007163l12.970406-1.512447 45.196365 72.307839 42.352597-17.563004-19.262716-83.081207 10.226922-8.101515c11.087523-8.786107 21.077038-18.778692 29.692253-29.700439l8.093329-10.277064 83.089393 19.253506 17.533328-42.36283-72.355935-45.13599 1.5104-12.968359c1.641383-13.945617 1.638313-28.061103-0.010233-41.962717l-1.549286-12.973476 72.383564-45.202505-17.551748-42.35669-83.07916 19.23918-8.099469-10.215666c-8.800433-11.114129-18.786878-21.106714-29.691229-29.705556l-10.266831-8.087189 19.193131-83.069951-42.364877-17.535375-45.138036 72.372308-12.978593-1.537006c-13.840216-1.62194-28.109198-1.619894-41.97295 0.01228l-12.972453 1.517563-45.183062-72.355935-42.34748 17.563004 19.261693 83.092463-10.229992 8.110725c-11.062963 8.755408-21.050432 18.7439-29.689183 29.693276l-8.099469 10.248412-83.09451-19.206434-17.539468 42.376133 72.374354 45.133943-1.52268 12.970406c-1.641383 13.970176-1.638313 28.087709 0.00921 41.960671l1.542122 12.978593-72.379471 45.198411 17.554818 42.35976 83.075067-19.23918 8.100492 10.216689c8.81783 11.129478 18.807345 21.12104 29.691229 29.695323l10.264784 8.104585L259.034103 606.225011z" p-id="3976"></path><path d="M316.424184 670.604274l-101.125165-41.85527 21.069875-91.153046c-7.254218-6.344498-14.159488-13.253862-20.582781-20.591991l-91.193978 21.116947-41.907459-101.085256 79.410608-49.592488c-0.651846-9.624195-0.653893-19.391652-0.00921-29.108968l-79.409584-49.532113 41.8522-101.114932 91.198072 21.065781c6.351662-7.256264 13.254885-14.159488 20.575618-20.572548l-21.141506-91.214445 101.093443-41.894156 49.581232 79.393211c9.649777-0.642636 19.418258-0.641613 29.109991 0.002047l49.525973-79.411631 101.125165 41.856293-21.065781 91.151c7.254218 6.347568 14.160511 13.256932 20.580734 20.593014l91.193978-21.113877 41.907459 101.08321-79.412654 49.590442c0.652869 9.662057 0.657986 19.429515 0.00921 29.112038l79.407538 49.532113-41.85527 101.126188-91.177606-21.122063c-6.372128 7.280824-13.277398 14.185071-20.577664 20.569478l21.147646 91.216491-101.08628 41.895179-49.599651-79.361489c-9.647731 0.651846-19.418258 0.655939-29.118178 0.008186L316.424184 670.604274zM225.773582 623.353111l87.051635 36.031635 48.378847-77.56968 2.725064 0.214894c11.037381 0.873903 22.191418 0.870834 33.154098-0.008186l2.725064-0.217964 48.450479 77.522608 87.018889-36.066427-20.659529-89.104387 2.080382-1.772366c8.410554-7.16519 16.297175-15.048741 23.436782-23.426549l1.771343-2.081405 89.061408 20.633946 36.030611-87.050612-77.567633-48.383964 0.216941-2.725064c0.876973-11.009751 0.873903-22.163789-0.011256-33.146934l-0.218988-2.727111 77.574796-48.443315-36.074613-87.013773-89.079828 20.623713-1.769296-2.076288c-7.218402-8.453533-15.103999-16.3422-23.442922-23.450085l-2.081405-1.772366 20.579711-89.035826-87.054705-36.029588-48.376801 77.56968-2.723018-0.215918c-11.029194-0.873903-22.185278-0.87595-33.153074-0.00307l-2.723018 0.216941L312.664557 86.291318l-87.022982 36.06438 20.649296 89.093131-2.076288 1.775436c-8.43409 7.203052-16.318664 15.089673-23.436782 23.435759l-1.77032 2.078335-89.080851-20.577664-36.027541 87.041402 77.56661 48.384987-0.213871 2.723018c-0.874927 11.060917-0.87288 22.213931 0.00921 33.147958l0.220011 2.725064-77.573773 48.446385 36.074613 87.015819 89.077781-20.62576 1.771343 2.078335c7.218402 8.456602 15.105023 16.343223 23.443945 23.449062l2.079358 1.77339L225.773582 623.353111zM306.475602 639.58991l-62.215994-25.753547 19.801998-85.699848-3.949962-3.118014c-11.661597-9.187243-22.356171-19.878746-31.777751-31.776727l-3.118014-3.931542-85.724407 19.854187-25.77913-62.206784 74.665537-46.6249-0.592494-4.988618c-1.76418-14.862499-1.768273-29.980825-0.010233-44.936445l0.583285-4.982478-74.66656-46.566572 25.75457-62.226227 85.736687 19.816325 3.114944-3.942799c9.249665-11.722996 19.938098-22.414499 31.764448-31.774681l3.940752-3.123131-19.874653-85.74078 62.194504-25.791409 46.619784 74.655304 4.990664-0.582261c14.916734-1.75497 30.036084-1.760087 44.939515-0.01228l4.990664 0.590448 46.562479-74.65735 62.21804 25.752524-19.803022 85.695754 3.946892 3.109828c11.683087 9.214872 22.37459 19.909445 31.782867 31.79003l3.112897 3.927449 85.727477-19.851117 25.777083 62.202691-74.668607 46.6249 0.596588 4.986571c1.766226 14.881942 1.77032 29.999245 0.013303 44.931329l-0.580215 4.987594 74.65735 46.569642-25.748431 62.219063-85.71929-19.862373-3.114944 3.956102c-9.219989 11.69025-19.911492 22.384823-31.778774 31.789007l-3.933589 3.116991 19.87363 85.726453-62.192458 25.78834-46.63411-74.607208-4.993734 0.582261c-14.880919 1.749854-29.995151 1.749854-44.918026 0.007163l-4.998851-0.595564L306.475602 639.58991zM254.73417 608.440469l48.143487 19.928888 45.563732-73.04769 10.656711 1.26276c14.22191 1.666966 28.632107 1.661849 42.822294-0.00614l10.649548-1.242294 45.613874 72.975035 48.126091-19.956517-19.441794-83.850733 8.394181-6.650467c11.322883-8.970302 21.512966-19.167548 30.29805-30.308283l6.646374-8.439206 83.854826 19.431561 19.927865-48.140417-73.031317-45.555545 1.24127-10.645454c1.676176-14.236236 1.672082-28.64234-0.010233-42.824341l-1.269923-10.650571 73.048713-45.61592-19.946284-48.13223-83.848687 19.416212-6.650467-8.385994c-8.975419-11.337209-19.166525-21.533432-30.29805-30.3134l-8.42795-6.638187 19.370163-83.83129-48.14144-19.926842-45.553499 73.036433-10.652618-1.260713c-14.20042-1.665942-28.615735-1.662873-42.837644 0.011256l-10.648524 1.245364-45.601594-73.025177-48.124044 19.956517 19.439748 83.863013-8.399297 6.659677c-11.281951 8.92937-21.474081 19.123546-30.293957 30.299073l-6.64842 8.413624-83.86199-19.384489-19.931958 48.154743 73.042573 45.548382-1.25048 10.646478c-1.675152 14.256702-1.672082 28.664853 0.008186 42.826388l1.2689 10.654664-73.046666 45.614897 19.948331 48.136324 83.84664-19.421328 6.650467 8.390088c8.990768 11.346419 19.183921 21.541619 30.299073 30.30112l8.425903 6.649444L254.73417 608.440469z" p-id="3977"></path><path d="M319.700811 680.820963l-113.939005-47.159066 21.540595-93.192495c-4.981455-4.555759-9.797134-9.374508-14.387685-14.396895l-93.229335 21.588691L72.466963 433.764148l81.181951-50.699706c-0.304945-6.744611-0.306992-13.556761-0.004093-20.349467l-81.183997-50.639331 47.155996-113.927749 93.237521 21.537526c4.557806-4.981455 9.371438-9.794064 14.380522-14.376429l-21.614274-93.252871 113.90626-47.203068 50.689473 81.168648c6.763031-0.299829 13.561877-0.300852 20.346397 0.002047l50.632167-81.186044 113.940029 47.160089-21.537526 93.191472c4.984524 4.560876 9.800203 9.379625 14.387685 14.396895l93.229335-21.585621 47.218418 113.892957-81.183997 50.696636c0.306992 6.77224 0.309038 13.585413 0.00614 20.35356l81.179904 50.637284-47.161113 113.943099-93.217055-21.594831c-4.568039 4.993734-9.381671 9.80532-14.379499 14.373359l21.61939 93.251847-113.89705 47.204092-50.706869-81.131809c-6.770194 0.309038-13.57211 0.310062-20.3597 0.005117L319.700811 680.820963zM264.270361 603.527576l35.33067 14.625092 44.64378-71.572082 15.816221 1.874697c13.490246 1.581008 27.396977 1.579985 40.902572-0.007163l15.801894-1.842974 44.684712 71.489194 35.317367-14.645558-19.045775-82.144882 12.455683-9.867742c10.8143-8.567119 20.555152-18.311041 28.952402-28.960589l9.859555-12.518105 82.160231 19.037589 14.622022-35.323507-71.547523-44.629453 1.841951-15.795754c1.601474-13.603833 1.599428-27.366278-0.008186-40.911782l-1.88493-15.805988 71.575152-44.695968-14.638395-35.32146-82.137719 19.020192-9.867742-12.44238c-8.585539-10.842952-18.324344-20.588921-28.954449-28.972868l-12.502755-9.849322 18.978237-82.136695-35.3276-14.623046-44.632523 71.560826-15.812127-1.870604c-13.485129-1.582031-27.39493-1.579985-40.918945 0.01228l-15.802918 1.849114-44.673455-71.54036-35.313274 14.644535 19.043728 82.154092-12.458753 9.877975c-10.788717 8.538467-20.528546 18.278295-28.952402 28.955472l-9.866718 12.486382-82.158185-18.990516-14.627139 35.33988 71.562872 44.62536-1.855254 15.800871c-1.600451 13.619182-1.598404 27.381627 0.007163 40.906665l1.882883 15.811104-71.573105 44.694945 14.639418 35.32453 82.136695-19.024286 9.867742 12.449543c8.597819 10.851139 18.337647 20.593014 28.951379 28.956495l12.503778 9.866718L264.270361 603.527576z" p-id="3978"></path><path d="M347.180676 453.205942c-44.318368-18.343787-65.448618-69.331042-47.107901-113.64327 18.342764-44.314275 69.324902-65.452711 113.644293-47.108924 44.315298 18.34174 65.443501 69.327972 47.102784 113.642247C442.478112 450.4072 391.495974 471.547683 347.180676 453.205942zM408.963811 303.937291c-37.989219-15.7231-81.681324 2.387373-97.40647 40.377616-15.724123 37.989219 2.38635 81.686441 40.375569 97.40954 37.985126 15.722076 81.682347-2.393513 97.40647-40.380686C465.06248 363.351472 446.948937 319.659367 408.963811 303.937291z" p-id="3979"></path><path d="M380.326587 468.00295c-12.474103 0-24.680099-2.433422-36.277228-7.233752-48.489364-20.070104-71.609944-75.848479-51.540863-124.337843 14.779611-35.706223 49.343825-58.776661 88.056522-58.776661 12.476149 0 24.684192 2.434445 36.283368 7.235798 48.486294 20.068058 71.605851 75.845409 51.53677 124.33682C453.60452 444.932512 419.040307 468.00295 380.326587 468.00295zM380.543527 306.454624c-27.006074 0-51.116191 16.090467-61.422931 40.9916-6.768147 16.352433-6.752798 34.390251 0.044002 50.788733 6.797823 16.398482 19.546172 29.158087 35.898605 35.926234 8.087189 3.347235 16.593933 5.0449 25.28385 5.0449 27.00812 0.002047 51.120284-16.08842 61.428048-40.992623 13.994736-33.8172-2.128477-72.716138-35.942607-86.711897C397.742235 308.153312 389.233444 306.454624 380.543527 306.454624z" p-id="3980"></path><path d="M342.949304 463.430818c-49.957809-20.677948-73.777307-78.143755-53.101405-128.101563 20.678972-49.957809 78.144778-73.777307 128.101563-53.099359 49.954739 20.674878 73.773214 78.139661 53.095265 128.098493C450.367803 460.285175 392.904043 484.10672 342.949304 463.430818zM404.732439 314.162166c-32.348756-13.388938-69.560262 2.036379-82.951247 34.385135-13.388938 32.350802 2.034333 69.563332 34.384112 82.95227 32.346709 13.388938 69.558216-2.036379 82.9492-34.388205C452.503443 364.761588 437.080172 327.550081 404.732439 314.162166z" p-id="3981"></path><path d="M380.317377 479.07103c-13.925151 0-27.551496-2.716878-40.499389-8.075933C285.691229 448.590831 259.8814 386.327766 282.282596 332.198961c16.498766-39.857776 55.080479-65.611324 98.292654-65.611324 13.927197 0 27.554566 2.717901 40.504506 8.077979 26.180266 10.834766 46.589085 31.254841 57.466829 57.497529s10.899234 55.113225 0.062422 81.295538C462.111265 453.316459 423.529551 479.07103 380.317377 479.07103zM380.576273 282.960537c-36.564777 0-69.208245 21.785166-83.165118 55.499012-18.949584 45.786813 2.882654 98.455359 48.668443 117.405967 10.952446 4.533246 22.470781 6.831592 34.237779 6.831592 36.564777 0 69.208245-21.785166 83.163071-55.501058 9.16473-22.141276 9.144264-46.562479-0.058328-68.765153-9.202593-22.201651-26.463722-39.47506-48.603975-48.637744C403.864676 285.259906 392.343271 282.960537 380.576273 282.960537zM380.368542 444.512956c-0.00307 0-0.002047 0-0.00614 0-9.399067 0-18.593474-1.833765-27.327392-5.449106-36.519752-15.115256-53.933353-57.125045-38.818097-93.647867 11.131525-26.891464 37.162388-44.268226 66.316381-44.268226 9.398044 0 18.593474 1.833765 27.330462 5.449106 36.518728 15.115256 53.931307 57.122999 38.816051 93.644797C435.547259 427.134147 409.517419 444.512956 380.368542 444.512956zM380.533294 317.520657c-22.506597 0-42.59819 13.407358-51.187823 34.156938-11.662621 28.180829 1.772366 60.595077 29.951149 72.257697 6.738471 2.789533 13.826913 4.203742 21.066805 4.204765 0.001023 0 0.00307 0 0.004093 0 22.502503 0 42.593074-13.408381 51.182706-34.158984 11.662621-28.179806-1.772366-60.59303-29.949103-72.254627C394.860605 318.935889 387.772162 317.520657 380.533294 317.520657z" p-id="3982"></path><path d="M675.608753 934.711418l-59.053977-32.720216 20.481474-57.772798c-5.079692-5.438872-9.759271-11.322883-13.973246-17.578354l-60.935838 6.975878-18.619056-64.87966 55.377238-26.39209c0.246617-7.466042 1.101077-14.941294 2.535753-22.307052l-48.018643-38.139645 32.715099-59.044768 57.803497 20.48352c5.454222-5.091972 11.33107-9.764388 17.567098-13.9712l-6.993275-60.94914 64.88273-18.61087 26.386974 55.362912c7.483438 0.25685 14.95255 1.113357 22.307052 2.543939l38.134529-48.018643 59.055001 32.717146-20.48352 57.779961c5.082762 5.436826 9.762341 11.319813 13.976316 17.575284l60.934814-6.978948 18.619056 64.880683-55.378262 26.38902c-0.24764 7.471159-1.094938 14.939247-2.534729 22.310122l48.019667 38.138622-32.719192 59.052954-57.788148-20.517289c-5.442966 5.083785-11.323906 9.766434-17.569144 13.966083l6.998391 60.953234-64.880683 18.611893-26.400277-55.345516c-7.491625-0.248663-14.956643-1.102101-22.311145-2.537799L675.608753 934.711418zM636.750747 894.345058l34.632775 19.191084 35.891442-45.194318 5.081739 1.201361c9.463536 2.211365 19.188015 3.323699 28.907377 3.288906l5.215792-0.013303 24.840758 52.071959 38.053688-10.923794-6.582929-57.32766 4.426823-2.75474c8.329712-5.180999 15.993253-11.278881 22.777773-18.119683l3.682879-3.718695 54.373375 19.310811 19.186991-34.632775-45.183062-35.889395 1.188058-5.080715c2.229784-9.489118 3.332908-19.207457 3.28686-28.90226l-0.026606-5.219885 52.113915-24.834618-10.915607-38.055734-57.325613 6.568602-2.752694-4.425799c-5.191232-8.349155-11.287067-16.010649-18.114566-22.780843l-3.710508-3.677762 19.267832-54.366212-34.633798-19.186991-35.885302 45.185108-5.080715-1.196245c-9.469676-2.221598-19.198248-3.325745-28.913517-3.292999l-5.217838 0.01842-24.828478-52.102658-38.052664 10.92584 6.580882 57.334823-4.436032 2.758834c-8.299013 5.15951-15.966647 11.262508-22.768563 18.11252l-3.677762 3.702322-54.385655-19.278065-19.191084 34.638915 45.191248 35.883255-1.192152 5.081739c-2.224668 9.491165-3.334955 19.213597-3.288906 28.903284l0.023536 5.225001-52.112891 24.834618 10.917654 38.051641 57.323567-6.563486 2.753717 4.425799c5.192256 8.348132 11.287067 16.008602 18.11559 22.776749l3.708462 3.681856L636.750747 894.345058z" p-id="3983"></path><path d="M758.050394 954.352757l-27.282367-57.196677c-4.558829-0.308015-9.121751-0.827855-13.648858-1.554402l-39.412638 49.630351-71.185272-39.441291 21.169135-59.711963c-2.99931-3.438309-5.856381-7.034207-8.544607-10.751878l-62.97631 7.210215-22.444175-78.209246 57.229422-27.27418c0.306992-4.548596 0.826831-9.108448 1.553379-13.641695l-49.627281-39.418778 39.435151-71.175039 59.742662 21.170159c3.435239-2.997264 7.027044-5.852288 10.739599-8.540514l-7.227612-62.992683 78.214363-22.433942 27.27111 57.218166c4.552689 0.311085 9.113565 0.831948 13.638625 1.556449l39.412638-49.628304 71.186296 39.438221-21.170159 59.716057c2.99931 3.435239 5.857405 7.031137 8.546653 10.750855l62.974263-7.213285 22.445198 78.210269-57.230446 27.27111c-0.306992 4.560876-0.825808 9.123798-1.551332 13.645788l49.628304 39.415708-39.442314 71.186296-59.725266-21.205974c-3.444449 3.00545-7.03523 5.859451-10.739599 8.537444l7.231705 62.992683L758.050394 954.352757zM710.428793 877.699959l4.88424 0.954745c6.931876 1.352811 14.002922 2.157129 21.013593 2.390443l4.974291 0.165776 25.559119 53.581336 51.55212-14.788821-6.77531-59.009975 4.13211-2.780323c5.840008-3.927449 11.407817-8.353248 16.550954-13.155624l3.63683-3.396353 55.940057 19.860327 25.995047-46.919613-46.485731-36.919864 0.953721-4.88424c1.350764-6.92062 2.153036-13.989619 2.38635-21.012569l0.165776-4.976338 53.614082-25.547863-14.793938-51.55212-58.989509 6.756891-2.7793-4.124947c-3.958148-5.875824-8.388041-11.447726-13.166881-16.558118l-3.3984-3.635807 19.828604-55.93494-46.922682-25.996071-36.914748 46.483684-4.882194-0.950651c-6.942109-1.350764-14.015202-2.157129-21.023826-2.39863l-4.969175-0.170892-25.543769-53.592592-51.55212 14.786775 6.769171 58.997696-4.120854 2.780323c-5.867638 3.958148-11.43954 8.389064-16.560164 13.168927l-3.634784 3.39226-55.955406-19.827581-25.994024 46.915519 46.483684 36.920888-0.950651 4.881171c-1.353834 6.956436-2.157129 14.026458-2.38942 21.013593l-0.163729 4.976338-53.614082 25.551956 14.794961 51.551096 58.989509-6.753821 2.7793 4.124947c3.956102 5.871731 8.385994 11.44568 13.166881 16.565281l3.394307 3.634784-19.825534 55.924707 46.922682 25.998117L710.428793 877.699959zM766.916319 934.671509l-25.632797-53.653991-0.464581 0.001023c-10.171664 0-20.37505-1.178849-30.325679-3.504824l-0.041956-0.010233-36.97103 46.553269-46.762023-25.91216 19.84907-56.009641-0.026606-0.026606c-7.281847-7.218402-13.776771-15.382339-19.299555-24.26259l-0.017396-0.027629-59.066257 6.763031-14.741749-51.380204 53.683666-25.614377c-0.049119-10.311857 1.12973-20.677948 3.504824-30.80868l0.007163-0.029676-46.557362-36.968983 25.91216-46.769186 56.033178 19.86135 0.022513-0.022513c7.262404-7.312546 15.422248-13.805424 24.254404-19.295462l0.033769-0.021489-6.780427-59.075467 51.383274-14.753005 25.610284 53.680597 0.450255-0.001023c10.217712 0 20.432355 1.180895 30.360472 3.510964l0.030699 0.007163 36.966936-46.547129 46.76407 25.907043-19.84907 56.006572 0.022513 0.022513c7.290033 7.228635 13.783934 15.394618 19.303648 24.2718l0.016373 0.025583 59.06728-6.768147 14.738679 51.387367-53.680597 25.604144c0.049119 10.344602-1.12973 20.711717-3.5038 30.816866l-0.00614 0.022513 46.552246 36.977169-25.90909 46.766117-56.012711-19.892049-0.023536 0.023536c-7.239891 7.300266-15.404852 13.795191-24.270776 19.310811l-0.026606 0.017396 6.782473 59.07035L766.916319 934.671509zM751.638357 864.619036l24.086581 50.489928 24.725124-7.097652-6.382361-55.585993 8.824993-5.492084c7.788383-4.844332 14.950504-10.5421 21.291932-16.934694l7.336082-7.407714 52.733015 18.729573 12.464893-22.49841-43.813878-34.802644 2.367931-10.128685c2.082428-8.861832 3.114944-17.942651 3.071965-26.999934l-0.054235-10.413164 50.547233-24.087605-7.092535-24.725124-55.582923 6.369058-5.489014-8.824993c-4.848425-7.797593-10.544147-14.960737-16.927531-21.291932l-7.397481-7.330966 18.686594-52.724829-22.502503-12.466939-34.80469 43.823088-10.135848-2.38635c-8.698103-2.040473-17.654079-3.076058-26.615171-3.076058l-10.79895 0.036839-24.076348-50.52472-24.721031 7.098675 6.380314 55.594179-8.836249 5.496178c-7.755638 4.821819-14.915711 10.516518-21.283746 16.929578l-7.333012 7.383154-52.739155-18.694781-12.470009 22.50762 43.825135 34.798551-2.378164 10.134825c-2.080382 8.881274-3.114944 17.96414-3.071965 26.994818l0.048095 10.420327-50.542116 24.085558 7.093559 24.722054 55.579853-6.363941 5.490038 8.822946c4.851495 7.800663 10.54824 14.96176 16.928554 21.287839l7.394411 7.340175-18.682501 52.720735 22.502503 12.470009 34.812877-43.835368 10.141988 2.397606c8.710382 2.035356 17.660218 3.069919 26.579355 3.069919L751.638357 864.619036z" p-id="3984"></path><path d="M676.371116 938.539606l-63.46852-35.161824 20.723997-58.464553c-4.301979-4.722558-8.329712-9.792017-12.011568-15.107069l-61.656245 7.058766-20.012799-69.734224 56.032154-26.703175c0.293689-6.387477 1.025353-12.822027 2.179642-19.174712l-48.587602-38.593993 35.161824-63.460334 58.492182 20.726044c4.727675-4.303003 9.794064-8.333806 15.09786-12.008498l-7.074116-61.669548 69.735248-20.007683 26.698059 56.021921c6.405897 0.300852 12.8384 1.036609 19.175735 2.189875l38.585807-48.590672 63.469544 35.164894-20.722974 58.46046c4.303003 4.728698 8.334829 9.797134 12.010545 15.112186l61.656245-7.058766 20.015869 69.732178-56.034201 26.702152c-0.296759 6.41613-1.028423 12.849656-2.181689 19.175735l48.585555 38.593993-35.161824 63.470567-58.476833-20.761859c-4.744048 4.316306-9.80839 8.346085-15.098883 12.003382l7.081279 61.673641-69.734224 20.004613-26.712385-56.000432c-6.40385-0.295735-12.8384-1.027399-19.179828-2.181689L676.371116 938.539606zM620.205932 900.609739l54.636365 30.271444 37.693484-47.464011 1.778506 0.344854c7.204076 1.407046 14.552437 2.242064 21.838378 2.486634l1.813299 0.061398 26.093285 54.703903 60.028165-17.22122-6.91755-60.245106 1.50426-1.011027c6.076392-4.092201 11.862165-8.69094 17.197684-13.675464l1.324158-1.235131 57.114812 20.278859 30.271444-54.635341-47.461965-37.694507 0.347924-1.779529c1.403976-7.187703 2.238994-14.532995 2.482541-21.836331l0.060375-1.812275 54.735625-26.082028L917.520385 664.036695l-60.226686 6.892991-1.011027-1.49812c-4.117784-6.115278-8.719592-11.901051-13.679557-17.20894l-1.239224-1.325182 20.244067-57.101509-54.638411-30.275537-37.692461 47.466058-1.775436-0.346901c-7.199982-1.403976-14.549368-2.242064-21.840424-2.493797l-1.809205-0.060375-26.076912-54.722322-60.030212 17.220197 6.91141 60.237943-1.502213 1.013073c-6.096858 4.112668-11.880585 8.714476-17.198707 13.680581l-1.323135 1.234107-57.134255-20.246113-30.266327 54.630225 47.458895 37.697577-0.344854 1.77646c-1.408069 7.220449-2.241041 14.564717-2.483564 21.834284l-0.058328 1.812275-54.739718 26.085098 17.23043 60.025095 60.225663-6.892991 1.010003 1.50119c4.117784 6.113231 8.722662 11.902074 13.681604 17.206894l1.237177 1.324158L620.205932 900.609739zM672.146908 917.363308l-39.048341-21.636786 19.478633-54.964846-2.367931-2.348488c-6.992251-6.92983-13.231349-14.774495-18.545378-23.319102l-1.75804-2.823302-57.960063 6.639211-12.30935-42.908252 52.68492-25.105794-0.016373-3.331885c-0.046049-9.924024 1.087774-19.880793 3.367701-29.601178l0.759293-3.240811-45.687552-36.278251 21.638833-39.057551 54.984289 19.495006 2.348488-2.364861c6.973832-7.028067 14.81645-13.266142 23.310915-18.544355l2.829442-1.763157-6.649444-57.96825 42.901089-12.317537 25.103748 52.674687 3.329838-0.008186c9.957793-0.034792 19.919678 1.094938 29.604248 3.366677l3.244904 0.765433 36.276205-45.681412 39.050388 21.633716L829.239759 653.637858l2.366907 2.344395c7.002484 6.947226 13.241582 14.794961 18.547425 23.327288l1.757017 2.824325 57.96211-6.640234 12.30628 42.909276-52.685943 25.103748 0.01842 3.328815c0.044002 9.939373-1.087774 19.895119-3.363607 29.602202l-0.759293 3.237741 45.684482 36.283368-21.63781 39.049365-54.972009-19.518542-2.348488 2.372024c-6.952342 7.007601-14.795984 13.249769-23.319102 18.550495l-2.824325 1.76111 6.653537 57.963133-42.906206 12.314467-25.118074-52.646034-3.331885 0.00921c-9.933233 0.035816-19.890003-1.098008-29.587875-3.369747l-3.247974-0.765433L672.146908 917.363308zM640.401904 892.961548l30.216185 16.739243 35.498492-44.694945 6.92676 1.632173c9.240455 2.168386 18.73469 3.245927 28.207435 3.213181l7.105838-0.01842 24.566512 51.495838 33.200146-9.532097-6.509251-56.694233 6.031367-3.748371c8.128121-5.058203 15.608489-11.011798 22.23235-17.689894l5.013177-5.060249 53.776787 19.097964 16.741289-30.213116-44.687782-35.495422 1.61887-6.919597c2.172479-9.250688 3.25309-18.738783 3.209088-28.207435l-0.034792-7.110955 51.540863-24.562419-9.522887-33.203216-56.691163 6.493901-3.752464-6.024204c-5.058203-8.140401-11.006681-15.623839-17.678638-22.242584l-5.055133-5.003967 19.054985-53.768601-30.214139-16.740266-35.492352 44.688805-6.921643-1.629103c-9.228175-2.163269-18.726503-3.246951-28.218692-3.212158l-7.105838 0.021489-24.555256-51.52449-33.199123 9.530051 6.510274 56.69935-6.036483 3.756557c-8.099469 5.03569-15.58086 10.985192-22.228257 17.681708l-5.013177 5.045923-53.784974-19.068288-16.746406 30.223349 44.695968 35.489282-1.623987 6.916527c-2.173502 9.268084-3.254114 18.759249-3.211135 28.212552l0.036839 7.113001-51.54291 24.561395 9.526981 33.207309 56.689117-6.500041 3.747347 6.02625c5.072529 8.15575 11.021008 15.634072 17.681708 22.237467l5.055133 5.012154L640.401904 892.961548z" p-id="3985"></path><path d="M756.446873 957.913862 728.822722 900.000871c-3.486404-0.276293-6.976902-0.672312-10.44591-1.188058l-39.906895 50.248428-75.600839-41.882899 21.433148-60.465117c-2.25946-2.65241-4.444219-5.399987-6.537903-8.226359l-63.763233 7.30129-23.837918-83.062787 57.944713-27.613918c0.276293-3.480264 0.672312-6.969739 1.188058-10.43977l-50.249451-39.913035 41.883923-75.589582 60.493769 21.435195c2.65548-2.263553 5.399987-4.447289 8.215102-6.53381l-7.315616-63.778582 83.065857-23.831778 27.610848 57.938574c3.483334 0.277316 6.971785 0.676405 10.438747 1.193175l39.903825-50.251497 75.601862 41.886993-21.433148 60.46307c2.267647 2.661619 4.453429 5.411243 6.53995 8.228405l63.761186-7.300266 23.842011 83.060741-57.948807 27.613918c-0.276293 3.489474-0.672312 6.977925-1.187035 10.440793l50.245358 39.912012-41.883923 75.604932-60.479443-21.473057c-2.663666 2.269693-5.40715 4.452405-8.213056 6.53074l7.322779 63.778582L756.446873 957.913862zM753.516124 861.634052l23.812335 49.913806 19.872606-5.705955-6.309706-54.955636 10.43363-6.485715c7.581676-4.717442 14.560624-10.270924 20.741393-16.501836l8.668427-8.749268 52.135404 18.515702 10.018168-18.079774-43.318598-34.407648 2.799766-11.968589c2.028193-8.634658 3.035126-17.483186 2.994194-26.305109l-0.060375-12.304234 49.972135-23.814382-5.699816-19.87363-54.94438 6.293333-6.489808-10.41828c-4.726651-7.606235-10.275018-14.58723-16.495696-20.75879l-8.742105-8.652054 18.47477-52.131311-18.08489-10.019191-34.408671 43.325761-11.977799-2.819209c-8.472975-1.986237-17.188474-2.995217-25.897833-2.995217l-12.71151 0.036839-23.803125-49.943482-19.868513 5.702885 6.310729 54.957683-10.435677 6.493901c-7.567349 4.705162-14.545274 10.254551-20.74344 16.498766l-8.67252 8.726755-52.135404-18.48398-10.025331 18.092054 43.330878 34.404578-2.811022 11.970636c-2.026146 8.640798-3.034103 17.492396-2.994194 26.304086l0.064468 12.304234-49.975205 23.813359 5.701862 19.877723 54.94745-6.299473 6.484691 10.425444c4.732791 7.609305 10.282181 14.5903 16.492626 20.74651l8.743128 8.668427-18.475793 52.125171 18.086937 10.019191 34.417881-43.333948 11.982916 2.823302c8.466835 1.987261 17.186428 2.996241 25.908066 2.996241L753.516124 861.634052z" p-id="3986"></path><path d="M712.957383 797.647739c-27.817556-15.410991-37.905308-50.584072-22.497387-78.395488 15.412015-27.814486 50.579979-37.906332 78.395488-22.49841 27.814486 15.414061 37.904285 50.583049 22.493294 78.399581C775.939833 802.961768 740.768799 813.05873 712.957383 797.647739zM764.863567 703.964056c-23.843034-13.210883-53.984518-4.564969-67.196425 19.281135-13.20986 23.844058-4.560876 53.987588 19.282159 67.197448 23.842011 13.207813 53.984518 4.555759 67.196425-19.283182C797.354562 747.313354 788.702508 717.171869 764.863567 703.964056z" p-id="3987"></path><path d="M740.804614 813.048497c-11.084453 0-22.086018-2.849908-31.815613-8.241708-31.763424-17.59575-43.288922-57.756425-25.690102-89.522919 11.597129-20.929682 33.708729-33.930787 57.70833-33.930787 11.084453 0 22.086018 2.848884 31.815613 8.238638 31.762401 17.600867 43.285852 57.763588 25.689079 89.528036C786.912745 800.047392 764.802168 813.048497 740.804614 813.048497zM740.986763 705.963597c-15.041578 0-28.897144 8.142447-36.158525 21.248953-11.022031 19.894096-3.805676 45.046962 16.08842 56.068993 6.089695 3.373841 12.972453 5.157463 19.903306 5.158487 0.001023 0 0.002047 0 0.00307 0 15.041578 0 28.898167-8.142447 36.162618-21.248953 11.019984-19.893072 3.802606-45.045939-16.089443-56.065923C754.80242 707.748243 747.918639 705.963597 740.986763 705.963597z" p-id="3988"></path><path d="M709.400371 804.064892c-31.355125-17.371646-42.72815-57.012482-25.357528-88.369653 17.373693-31.354102 57.016575-42.727127 88.3717-25.356504 31.351032 17.372669 42.727127 57.011458 25.353434 88.367607C780.397355 810.060443 740.754472 821.437561 709.400371 804.064892zM761.307577 710.379163c-20.302395-11.248182-45.973054-3.8814-57.223283 16.423041-11.248182 20.305465-3.880377 45.974078 16.420995 57.223283 20.302395 11.248182 45.972031 3.879354 57.222259-16.422018C788.97573 747.300051 781.610996 721.630415 761.307577 710.379163z" p-id="3989"></path><path d="M740.795405 820.384579c-12.319583 0-24.548092-3.167133-35.362392-9.15859-35.300994-19.557428-48.109718-64.191998-28.551266-99.497085 12.888542-23.260773 37.46324-37.71088 64.135716-37.71088 12.320607 0 24.549116 3.168156 35.365462 9.15859 35.299971 19.560498 48.106648 64.194044 28.547173 99.496062C792.041556 805.934472 767.466857 820.384579 740.795405 820.384579zM741.017462 690.390923c-20.721951 0-39.808658 11.216459-49.813522 29.27065-15.182794 27.408233-5.240351 62.059428 22.163789 77.241198 8.392134 4.649903 17.877159 7.107885 27.427676 7.107885 20.720927 0 39.808658-11.216459 49.812499-29.272697 15.184841-27.405163 5.243421-62.055334-22.160719-77.240175C760.054027 692.849928 750.569002 690.390923 741.017462 690.390923zM740.83429 797.47787c-0.001023 0-0.002047 0-0.00307 0-8.464789 0-16.865109-2.175549-24.293289-6.290263-24.25031-13.438057-33.048697-44.100404-19.614733-68.351738 8.854669-15.980973 25.736151-25.908066 44.056402-25.908066 8.464789 0 16.866133 2.175549 24.295336 6.291287 24.25031 13.438057 33.048697 44.100404 19.61371 68.352761C776.03193 787.550777 759.151471 797.47787 740.83429 797.47787zM740.9796 713.299679c-12.369725 0-23.76424 6.694469-29.734208 17.469883-9.060353 16.35448-3.1262 37.032428 13.228279 46.095851 5.006014 2.77316 10.662851 4.239558 16.358573 4.239558 12.368702 0.001023 23.763217-6.692423 29.735232-17.46886 9.060353-16.35448 3.127224-37.032428-13.228279-46.095851C752.332159 714.7671 746.675322 713.299679 740.9796 713.299679z" p-id="3990"></path></svg>