<?xml version="1.0" standalone="no"?><!DOCTYPE svg PUBLIC "-//W3C//DTD SVG 1.1//EN" "http://www.w3.org/Graphics/SVG/1.1/DTD/svg11.dtd"><svg t="1580967606062" class="icon" viewBox="0 0 1024 1024" version="1.1" xmlns="http://www.w3.org/2000/svg" p-id="2118" xmlns:xlink="http://www.w3.org/1999/xlink" width="48" height="48"><defs><style type="text/css"></style></defs><path d="M233.184 263.16c-22.936 0-43.448 20.512-43.448 43.448s20.512 42.24 43.448 42.24c22.928 0 42.24-19.312 42.24-42.24s-19.312-43.448-42.24-43.448zM865.336 306c0 18.776-13.68 34-30.544 34H370.72c-16.864 0-30.536-15.224-30.536-34S353.856 272 370.72 272h464.072c16.864 0 30.544 15.224 30.544 34zM233.184 472.496c-22.936 0-43.448 20.512-43.448 43.448s20.512 42.24 43.448 42.24c22.928 0 42.24-19.312 42.24-42.24s-19.312-43.448-42.24-43.448zM865.336 515.336c0 18.776-13.68 34-30.544 34H370.72c-16.864 0-30.536-15.224-30.536-34 0-18.784 13.672-34 30.536-34h464.072c16.864 0 30.544 15.216 30.544 34z" p-id="2119"></path><path d="M233.184 681.832c-22.936 0-43.448 20.512-43.448 43.448s20.512 42.24 43.448 42.24c22.928 0 42.24-19.312 42.24-42.24s-19.312-43.448-42.24-43.448zM865.336 724.672c0 18.776-13.68 34-30.544 34H370.72c-16.864 0-30.536-15.224-30.536-34 0-18.784 13.672-34 30.536-34h464.072c16.864 0 30.544 15.216 30.544 34z" p-id="2120"></path></svg>