<?xml version="1.0" standalone="no"?><!DOCTYPE svg PUBLIC "-//W3C//DTD SVG 1.1//EN" "http://www.w3.org/Graphics/SVG/1.1/DTD/svg11.dtd"><svg t="1581910838049" class="icon" viewBox="0 0 1024 1024" version="1.1" xmlns="http://www.w3.org/2000/svg" p-id="1499" xmlns:xlink="http://www.w3.org/1999/xlink" width="48" height="48"><defs><style type="text/css"></style></defs><path d="M64 462.333h372.296V89H64v373.333z m56.726-316.618H379.57v259.903H120.726V145.715zM224.22 283.857l-32.414-34.776-41.534 38.599 70.99 76.21 126.82-117.892-38.576-41.558-85.286 79.417z m341.27-116.042H960v56.726H565.489v-56.726z m0 157.6H960v56.726H565.489v-56.726zM64 935.222h372.08V561.816H64v373.406z m56.693-316.68h258.694v259.954H120.693V618.542z m102.215 138.864l-32.38-34.663-41.491 38.473 70.916 75.963 126.69-117.509-38.537-41.423-85.198 79.159zM563.823 641.74h394.103v56.542H563.823V641.74z m0 157.088h394.103v56.541H563.823V798.83z" p-id="1500"></path></svg>