<?xml version="1.0" standalone="no"?><!DOCTYPE svg PUBLIC "-//W3C//DTD SVG 1.1//EN" "http://www.w3.org/Graphics/SVG/1.1/DTD/svg11.dtd"><svg t="1564133655792" class="icon" viewBox="0 0 1024 1024" version="1.1" xmlns="http://www.w3.org/2000/svg" p-id="6600" xmlns:xlink="http://www.w3.org/1999/xlink" width="200" height="200"><defs><style type="text/css"></style></defs><path d="M804.224 635.04384c-18.40128 0-29.9008-19.92192-20.70016-35.85536a23.9104 23.9104 0 0 0-8.75008-32.65536l-32.06656-18.51392a23.90016 23.90016 0 0 0-32.65024 8.75008c-9.20064 15.93344-32.19968 15.93344-41.40032 0a23.90016 23.90016 0 0 0-32.65024-8.75008l-32.06656 18.51392a23.90016 23.90016 0 0 0-8.75008 32.65024c9.20064 15.93344-2.29888 35.85536-20.70016 35.85536a23.9104 23.9104 0 0 0-23.90528 23.90528v37.02784a23.9104 23.9104 0 0 0 23.90528 23.90528c18.40128 0 29.9008 19.92192 20.70016 35.85536a23.9104 23.9104 0 0 0 8.75008 32.65536l32.06656 18.51392a23.90016 23.90016 0 0 0 32.65024-8.75008c9.20064-15.93344 32.19968-15.93344 41.40032 0a23.90016 23.90016 0 0 0 32.65024 8.75008l32.06656-18.51392a23.90016 23.90016 0 0 0 8.75008-32.65024c-9.20064-15.93344 2.29888-35.85536 20.70016-35.85536a23.9104 23.9104 0 0 0 23.90528-23.90528v-37.02784a23.9104 23.9104 0 0 0-23.90528-23.90528z m-89.27232 86.7584c-24.48896 14.13632-55.80288 5.74976-69.9392-18.7392-14.13632-24.48896-5.74976-55.80288 18.7392-69.9392 24.48896-14.13632 55.80288-5.74976 69.9392 18.7392 14.14144 24.48896 5.74976 55.80288-18.7392 69.9392zM601.04704 539.7248a20.48 20.48 0 0 0-13.49632-25.6256c-4.71552-1.46432-9.472-2.7648-14.24896-3.98848 52.51584-27.32544 88.48896-82.23232 88.48896-145.41312 0-90.3424-73.4976-163.84-163.84-163.84s-163.84 73.4976-163.84 163.84c0 63.17568 35.96288 118.07744 88.4736 145.40288-130.22208 33.56672-226.7136 152.00256-226.7136 292.56192a20.48 20.48 0 0 0 40.96 0c0-143.97952 117.14048-261.12 261.12-261.12 26.4192 0 52.48512 3.93216 77.47072 11.6736a20.45952 20.45952 0 0 0 25.6256-13.4912zM375.07072 364.6976c0-67.75808 55.12704-122.88 122.88-122.88s122.88 55.12192 122.88 122.88-55.12704 122.88-122.88 122.88-122.88-55.12192-122.88-122.88z" p-id="6601"></path></svg>