<?xml version="1.0" standalone="no"?><!DOCTYPE svg PUBLIC "-//W3C//DTD SVG 1.1//EN" "http://www.w3.org/Graphics/SVG/1.1/DTD/svg11.dtd"><svg t="1583305945104" class="icon" viewBox="0 0 1024 1024" version="1.1" xmlns="http://www.w3.org/2000/svg" p-id="4105" xmlns:xlink="http://www.w3.org/1999/xlink" width="48" height="48"><defs><style type="text/css"></style></defs><path d="M936.52 809.218L819.277 691.975c-0.076-0.076-0.179-0.096-0.256-0.17 29.366-34.671 47.153-79.459 47.153-128.453 0-109.887-89.082-198.968-198.969-198.968s-198.968 89.082-198.968 198.968S557.32 762.32 667.206 762.32c48.994 0 93.782-17.787 128.453-47.153 0.074 0.077 0.094 0.18 0.17 0.256l117.242 117.243c6.477 6.476 16.974 6.476 23.449 0 6.476-6.475 6.476-16.973 0-23.448z m-269.314-80.059c-91.572 0-165.807-74.235-165.807-165.807s74.235-165.807 165.807-165.807c91.571 0 165.807 74.235 165.807 165.807s-74.235 165.807-165.807 165.807zM517.98 380.964c0-9.158-7.423-16.581-16.581-16.581H236.108c-9.158 0-16.581 7.423-16.581 16.581s7.423 16.581 16.581 16.581h265.291c9.158 0 16.581-7.423 16.581-16.581z m232.13 485.585l-39.794-37.9-69.639 66.324-69.638-66.324-69.639 66.324-69.639-66.324-69.639 66.324-69.638-66.324-69.639 66.324-69.639-66.324-33.161 31.583V166.988l33.161 31.583 69.639-66.323 69.639 66.323 69.638-66.323 69.639 66.323 69.639-66.323 69.639 66.323 69.638-66.323 69.639 66.323 39.794-37.899v186.064c11.528 4.416 22.602 9.678 33.161 15.794V82.517l-69.639 66.324-69.639-66.324-69.639 66.324-69.638-66.324-69.639 66.324-69.639-66.324-69.639 66.324-69.639-66.324-69.639 66.324-69.639-66.323v862.183l69.639-66.323 69.639 66.324 69.638-66.324 69.639 66.324 69.639-66.324 69.639 66.324 69.638-66.324 69.639 66.324 69.639-66.324 69.639 66.324V764.173c-10.559 6.117-21.634 11.378-33.161 15.794v86.582z m29.845-734.302l0.006 0.006h-0.012l0.006-0.006z m0.007 762.719l-0.007 0.007-0.007-0.007h0.014zM401.915 497.029H236.108c-9.158 0-16.581 7.423-16.581 16.581s7.423 16.581 16.581 16.581h165.807c9.158 0 16.581-7.423 16.581-16.581s-7.423-16.581-16.581-16.581z m0 132.646H236.108c-9.158 0-16.581 7.423-16.581 16.581s7.423 16.581 16.581 16.581h165.807c9.158 0 16.581-7.423 16.581-16.581s-7.423-16.581-16.581-16.581z" p-id="4106"></path></svg>