<?xml version="1.0" standalone="no"?><!DOCTYPE svg PUBLIC "-//W3C//DTD SVG 1.1//EN" "http://www.w3.org/Graphics/SVG/1.1/DTD/svg11.dtd"><svg t="1590465178122" class="icon" viewBox="0 0 1024 1024" version="1.1" xmlns="http://www.w3.org/2000/svg" p-id="2653" xmlns:xlink="http://www.w3.org/1999/xlink" width="48" height="48"><defs><style type="text/css"></style></defs><path d="M1024 762.88v-87.04s-56.32-10.24-56.32-15.36 0-10.24-5.12-10.24c5.12-10.24 40.96-40.96 40.96-40.96l-61.44-87.04s-40.96 35.84-51.2 40.96c-5.12 0-10.24-5.12-15.36-5.12s-20.48-56.32-20.48-56.32H768s-10.24 51.2-25.6 56.32c-5.12 0-10.24 5.12-15.36 5.12-10.24-5.12-51.2-40.96-51.2-40.96l-61.44 87.04s30.72 30.72 35.84 40.96c0 5.12 0 5.12-5.12 10.24-15.36 5.12-51.2 10.24-51.2 10.24v87.04S640 768 650.24 773.12c0 5.12 5.12 10.24 5.12 15.36-10.24 15.36-40.96 35.84-40.96 35.84l66.56 87.04s51.2-35.84 61.44-35.84c5.12 0 10.24 5.12 15.36 5.12 10.24 5.12 15.36 51.2 15.36 51.2h87.04s5.12-51.2 10.24-51.2 10.24-5.12 20.48-5.12c5.12 5.12 40.96 35.84 40.96 35.84l87.04-87.04s-30.72-20.48-40.96-35.84c0-5.12 5.12-10.24 5.12-15.36-10.24 0 40.96-10.24 40.96-10.24z m-220.16 66.56c-61.44 0-107.52-46.08-107.52-107.52S742.4 614.4 803.84 614.4s107.52 46.08 107.52 107.52c0 56.32-46.08 107.52-107.52 107.52zM138.24 81.92h675.84c25.6 0 40.96-15.36 40.96-40.96S839.68 0 814.08 0H138.24c-25.6 0-40.96 15.36-40.96 40.96 0 20.48 20.48 40.96 40.96 40.96z m102.4 266.24c0 61.44 51.2 117.76 117.76 117.76s117.76-51.2 117.76-117.76c0 61.44 51.2 117.76 117.76 117.76s117.76-51.2 117.76-117.76c0 61.44 51.2 117.76 117.76 117.76s117.76-51.2 117.76-117.76l-81.92-215.04H81.92L0 348.16c0 61.44 51.2 117.76 117.76 117.76 71.68 0 122.88-56.32 122.88-117.76z m307.2 424.96H153.6V501.76H87.04v286.72c0 25.6 25.6 56.32 51.2 56.32H563.2c-10.24-25.6-15.36-51.2-15.36-71.68z" p-id="2654"></path></svg>