<?xml version="1.0" standalone="no"?><!DOCTYPE svg PUBLIC "-//W3C//DTD SVG 1.1//EN" "http://www.w3.org/Graphics/SVG/1.1/DTD/svg11.dtd"><svg t="1590465194991" class="icon" viewBox="0 0 1024 1024" version="1.1" xmlns="http://www.w3.org/2000/svg" p-id="2802" xmlns:xlink="http://www.w3.org/1999/xlink" width="48" height="48"><defs><style type="text/css"></style></defs><path d="M512 877.714286H73.142857a18.285714 18.285714 0 0 1-18.285714-18.285715v-475.428571a17.92 17.92 0 0 1 6.948571-14.262857l365.714286-292.571429a17.554286 17.554286 0 0 1 22.674286 0l365.714285 292.571429a18.285714 18.285714 0 1 1-22.674285 28.525714L438.857143 114.834286l-347.428572 277.942857V841.142857H512a18.285714 18.285714 0 0 1 0 36.571429z" p-id="2803"></path><path d="M804.571429 420.571429a18.285714 18.285714 0 0 1-18.285715-18.285715v-18.285714a18.285714 18.285714 0 0 1 36.571429 0v18.285714a18.285714 18.285714 0 0 1-18.285714 18.285715zM699.977143 668.16a19.017143 19.017143 0 0 1-11.702857-4.022857 18.651429 18.651429 0 0 1-2.56-25.965714L760.685714 548.571429a18.285714 18.285714 0 0 1 25.6-2.56 19.017143 19.017143 0 0 1 2.56 25.965714l-74.971428 89.6a17.92 17.92 0 0 1-13.897143 6.582857zM909.165714 668.16a17.92 17.92 0 0 1-13.897143-6.582857l-74.971428-89.6a19.017143 19.017143 0 0 1 2.56-25.965714 18.285714 18.285714 0 0 1 25.6 2.56l74.971428 89.6a18.651429 18.651429 0 0 1-2.56 25.965714 19.017143 19.017143 0 0 1-11.702857 4.022857z" p-id="2804"></path><path d="M804.571429 608.548571a48.274286 48.274286 0 1 1 48.274285-48.274285A48.64 48.64 0 0 1 804.571429 608.548571zM804.571429 548.571429a11.702857 11.702857 0 0 0-11.702858 11.702857 11.702857 11.702857 0 0 0 23.405715 0A11.702857 11.702857 0 0 0 804.571429 548.571429zM969.142857 877.714286h-329.142857a18.285714 18.285714 0 0 1-18.285714-18.285715v-209.554285a18.285714 18.285714 0 0 1 18.285714-18.285715h329.142857a18.285714 18.285714 0 0 1 18.285714 18.285715v209.554285a18.285714 18.285714 0 0 1-18.285714 18.285715zM658.285714 841.142857h292.571429v-172.982857h-292.571429zM658.285714 548.571429H201.142857a18.285714 18.285714 0 0 1 0-36.571429H658.285714a18.285714 18.285714 0 0 1 0 36.571429zM512 694.857143H201.142857a18.285714 18.285714 0 0 1 0-36.571429H512a18.285714 18.285714 0 0 1 0 36.571429z" p-id="2805"></path></svg>