<?xml version="1.0" standalone="no"?><!DOCTYPE svg PUBLIC "-//W3C//DTD SVG 1.1//EN" "http://www.w3.org/Graphics/SVG/1.1/DTD/svg11.dtd"><svg t="1564209100393" class="icon" viewBox="0 0 1024 1024" version="1.1" xmlns="http://www.w3.org/2000/svg" p-id="2243" xmlns:xlink="http://www.w3.org/1999/xlink" width="200" height="200"><defs><style type="text/css"></style></defs><path d="M67.030138 926.781818l890.334721 0L957.364859 707.735963 67.030138 707.735963 67.030138 926.781818zM511.17368 758.959601 906.14122 758.959601l0 116.598578L511.17368 875.55818 511.17368 758.959601zM67.030138 97.788164l0 219.045855 890.334721 0L957.364859 97.788164 67.030138 97.788164zM906.14122 265.61038 512.196986 265.61038 512.196986 149.010779 906.14122 149.010779 906.14122 265.61038zM67.030138 621.807918l890.334721 0L957.364859 402.762063 67.030138 402.762063 67.030138 621.807918zM511.17368 453.985702 906.14122 453.985702l0 116.598578L511.17368 570.58428 511.17368 453.985702z" p-id="2244"></path></svg>